solid door
facet normal -3.0486124135652946e-16 0.0 1.0
  outer loop
    vertex 41.96533351320482 -1.9309765194804172 58.00000000000001
    vertex 45.961492277722016 33.70078033839512 58.00000000000001
    vertex 41.96533351320482 42.06902348051958 58.00000000000001
  endloop
endfacet
facet normal -3.0486124135652946e-16 0.0 1.0
  outer loop
    vertex 45.961492277722016 33.70078033839512 58.00000000000001
    vertex 41.96533351320482 -1.9309765194804172 58.00000000000001
    vertex 56.28365397009655 14.651636045052612 58.00000000000001
  endloop
endfacet
facet normal -3.0486124135652946e-16 0.0 1.0
  outer loop
    vertex 56.28365397009655 14.651636045052612 58.00000000000001
    vertex 41.96533351320482 -1.9309765194804172 58.00000000000001
    vertex 57.33618182832799 13.491668108067351 58.00000000000001
  endloop
endfacet
facet normal -3.0486124135652946e-16 0.0 1.0
  outer loop
    vertex 57.33618182832799 13.491668108067351 58.00000000000001
    vertex 41.96533351320482 -1.9309765194804172 58.00000000000001
    vertex 58.65306746328251 12.643639375277301 58.00000000000001
  endloop
endfacet
facet normal -3.0486124135652946e-16 0.0 1.0
  outer loop
    vertex 58.65306746328251 12.643639375277301 58.00000000000001
    vertex 41.96533351320482 -1.9309765194804172 58.00000000000001
    vertex 60.14456729519439 12.165341603388354 58.00000000000001
  endloop
endfacet
facet normal -3.0486124135652946e-16 0.0 1.0
  outer loop
    vertex 60.14456729519439 12.165341603388354 58.00000000000001
    vertex 41.96533351320482 -1.9309765194804172 58.00000000000001
    vertex 113.96533351320483 -1.9309765194804172 58.00000000000003
  endloop
endfacet
facet normal -3.0486124135652946e-16 0.0 1.0
  outer loop
    vertex 41.96533351320482 42.06902348051958 58.00000000000001
    vertex 45.961492277722016 33.70078033839512 58.00000000000001
    vertex 45.78801656425205 34.119587758596644 58.00000000000001
  endloop
endfacet
facet normal -3.0486124135652946e-16 0.0 1.0
  outer loop
    vertex 41.96533351320482 42.06902348051958 58.00000000000001
    vertex 45.78801656425205 34.119587758596644 58.00000000000001
    vertex 45.7288472289559 34.56902348051958 58.00000000000001
  endloop
endfacet
facet normal -3.0486124135652946e-16 0.0 1.0
  outer loop
    vertex 45.961492277722016 33.70078033839512 58.00000000000001
    vertex 56.28365397009655 14.651636045052612 58.00000000000001
    vertex 46.23745228617498 33.34114225348974 58.00000000000001
  endloop
endfacet
facet normal -3.0486124135652946e-16 0.0 1.0
  outer loop
    vertex 46.23745228617498 33.34114225348974 58.00000000000001
    vertex 56.28365397009655 14.651636045052612 58.00000000000001
    vertex 46.59709037108036 33.06518224503677 58.00000000000001
  endloop
endfacet
facet normal -3.0486124135652946e-16 0.0 1.0
  outer loop
    vertex 46.59709037108036 33.06518224503677 58.00000000000001
    vertex 56.28365397009655 14.651636045052612 58.00000000000001
    vertex 55.56721192274216 16.044493288265183 58.00000000000001
  endloop
endfacet
facet normal -3.0486124135652946e-16 0.0 1.0
  outer loop
    vertex 46.59709037108036 33.06518224503677 58.00000000000001
    vertex 55.56721192274216 16.044493288265183 58.00000000000001
    vertex 47.01589779128189 32.89170653156682 58.00000000000001
  endloop
endfacet
facet normal -3.0486124135652946e-16 0.0 1.0
  outer loop
    vertex 47.01589779128189 32.89170653156682 58.00000000000001
    vertex 55.56721192274216 16.044493288265183 58.00000000000001
    vertex 47.46533351320482 32.83253719627067 58.00000000000001
  endloop
endfacet
facet normal -3.0486124135652946e-16 0.0 1.0
  outer loop
    vertex 47.46533351320482 32.83253719627067 58.00000000000001
    vertex 55.56721192274216 16.044493288265183 58.00000000000001
    vertex 47.91476923512775 32.89170653156682 58.00000000000001
  endloop
endfacet
facet normal -3.0486124135652946e-16 0.0 1.0
  outer loop
    vertex 47.91476923512775 32.89170653156682 58.00000000000001
    vertex 55.56721192274216 16.044493288265183 58.00000000000001
    vertex 48.333576655329274 33.06518224503677 58.00000000000001
  endloop
endfacet
facet normal -3.0486124135652946e-16 0.0 1.0
  outer loop
    vertex 48.333576655329274 33.06518224503677 58.00000000000001
    vertex 55.56721192274216 16.044493288265183 58.00000000000001
    vertex 48.69321474023466 33.34114225348974 58.00000000000001
  endloop
endfacet
facet normal -3.0486124135652946e-16 0.0 1.0
  outer loop
    vertex 48.69321474023466 33.34114225348974 58.00000000000001
    vertex 55.56721192274216 16.044493288265183 58.00000000000001
    vertex 48.96917474868762 33.70078033839512 58.00000000000001
  endloop
endfacet
facet normal -3.0486124135652946e-16 0.0 1.0
  outer loop
    vertex 48.96917474868762 33.70078033839512 58.00000000000001
    vertex 55.56721192274216 16.044493288265183 58.00000000000001
    vertex 49.14265046215758 34.119587758596644 58.00000000000001
  endloop
endfacet
facet normal -3.0486124135652946e-16 0.0 1.0
  outer loop
    vertex 49.14265046215758 34.119587758596644 58.00000000000001
    vertex 55.56721192274216 16.044493288265183 58.00000000000001
    vertex 49.20181979745373 34.56902348051958 58.00000000000001
  endloop
endfacet
facet normal -3.0486124135652946e-16 0.0 1.0
  outer loop
    vertex 49.20181979745373 34.56902348051958 58.00000000000001
    vertex 55.56721192274216 16.044493288265183 58.00000000000001
    vertex 55.23568002781554 17.575318918385562 58.00000000000001
  endloop
endfacet
facet normal -3.0486124135652946e-16 0.0 1.0
  outer loop
    vertex 60.14456729519439 12.165341603388354 58.00000000000001
    vertex 113.96533351320483 -1.9309765194804172 58.00000000000003
    vertex 61.21533351320482 12.11334457494713 58.00000000000001
  endloop
endfacet
facet normal -3.0486124135652946e-16 0.0 1.0
  outer loop
    vertex 61.21533351320482 12.11334457494713 58.00000000000001
    vertex 113.96533351320483 -1.9309765194804172 58.00000000000003
    vertex 61.70903807533884 12.089369995130307 58.00000000000001
  endloop
endfacet
facet normal -3.0486124135652946e-16 0.0 1.0
  outer loop
    vertex 61.70903807533884 12.089369995130307 58.00000000000001
    vertex 113.96533351320483 -1.9309765194804172 58.00000000000003
    vertex 63.23986370545921 12.420901890056925 58.00000000000001
  endloop
endfacet
facet normal -3.0486124135652946e-16 0.0 1.0
  outer loop
    vertex 63.23986370545921 12.420901890056925 58.00000000000001
    vertex 113.96533351320483 -1.9309765194804172 58.00000000000003
    vertex 64.63272094867179 13.13734393741132 58.00000000000001
  endloop
endfacet
facet normal -3.0486124135652946e-16 0.0 1.0
  outer loop
    vertex 64.63272094867179 13.13734393741132 58.00000000000001
    vertex 113.96533351320483 -1.9309765194804172 58.00000000000003
    vertex 65.79268888565704 14.189871795642754 58.00000000000001
  endloop
endfacet
facet normal -3.0486124135652946e-16 0.0 1.0
  outer loop
    vertex 65.79268888565704 14.189871795642754 58.00000000000001
    vertex 113.96533351320483 -1.9309765194804172 58.00000000000003
    vertex 66.6407176184471 15.506757430597279 58.00000000000001
  endloop
endfacet
facet normal -3.0486124135652946e-16 0.0 1.0
  outer loop
    vertex 66.6407176184471 15.506757430597279 58.00000000000001
    vertex 113.96533351320483 -1.9309765194804172 58.00000000000003
    vertex 80.21533351320483 11.319023480519581 58.00000000000001
  endloop
endfacet
facet normal -3.0486124135652946e-16 0.0 1.0
  outer loop
    vertex 66.6407176184471 15.506757430597279 58.00000000000001
    vertex 80.21533351320483 11.319023480519581 58.00000000000001
    vertex 67.11901539033605 16.99825726250916 58.00000000000001
  endloop
endfacet
facet normal -3.0486124135652946e-16 0.0 1.0
  outer loop
    vertex 67.11901539033605 16.99825726250916 58.00000000000001
    vertex 80.21533351320483 11.319023480519581 58.00000000000001
    vertex 67.17101241877727 18.069023480519583 58.00000000000001
  endloop
endfacet
facet normal -3.0486124135652946e-16 0.0 1.0
  outer loop
    vertex 67.17101241877727 18.069023480519583 58.00000000000001
    vertex 80.21533351320483 11.319023480519581 58.00000000000001
    vertex 67.19498699859409 18.562728042653603 58.00000000000001
  endloop
endfacet
facet normal -3.0486124135652946e-16 0.0 1.0
  outer loop
    vertex 80.21533351320483 11.319023480519581 58.00000000000001
    vertex 113.96533351320483 -1.9309765194804172 58.00000000000003
    vertex 89.21533351320483 11.319023480519581 58.00000000000001
  endloop
endfacet
facet normal -3.0486124135652946e-16 0.0 1.0
  outer loop
    vertex 89.21533351320483 11.319023480519581 58.00000000000001
    vertex 113.96533351320483 -1.9309765194804172 58.00000000000003
    vertex 107.46533351320481 1.8369726729506937 58.00000000000001
  endloop
endfacet
facet normal -3.0486124135652946e-16 0.0 1.0
  outer loop
    vertex 89.21533351320483 11.319023480519581 58.00000000000001
    vertex 107.46533351320481 1.8369726729506937 58.00000000000001
    vertex 107.0511199508317 2.1548099181464755 58.00000000000001
  endloop
endfacet
facet normal -3.0486124135652946e-16 0.0 1.0
  outer loop
    vertex 89.21533351320483 11.319023480519581 58.00000000000001
    vertex 107.0511199508317 2.1548099181464755 58.00000000000001
    vertex 89.21533351320483 24.81902348051958 58.00000000000001
  endloop
endfacet
facet normal -3.0486124135652946e-16 0.0 1.0
  outer loop
    vertex 89.21533351320483 24.81902348051958 58.00000000000001
    vertex 107.0511199508317 2.1548099181464755 58.00000000000001
    vertex 106.73328270563594 2.569023480519569 58.00000000000001
  endloop
endfacet
facet normal -3.0486124135652946e-16 0.0 1.0
  outer loop
    vertex 89.21533351320483 24.81902348051958 58.00000000000001
    vertex 106.73328270563594 2.569023480519569 58.00000000000001
    vertex 106.53348186062664 3.051385390314526 58.00000000000001
  endloop
endfacet
facet normal -3.0486124135652946e-16 0.0 1.0
  outer loop
    vertex 89.21533351320483 24.81902348051958 58.00000000000001
    vertex 106.53348186062664 3.051385390314526 58.00000000000001
    vertex 106.46533351320481 3.5690234805195677 58.00000000000001
  endloop
endfacet
facet normal -3.0486124135652946e-16 0.0 1.0
  outer loop
    vertex 107.46533351320481 1.8369726729506937 58.00000000000001
    vertex 113.96533351320483 -1.9309765194804172 58.00000000000003
    vertex 107.94769542299974 1.6371718279414365 58.00000000000001
  endloop
endfacet
facet normal -3.0486124135652946e-16 0.0 1.0
  outer loop
    vertex 107.94769542299974 1.6371718279414365 58.00000000000001
    vertex 113.96533351320483 -1.9309765194804172 58.00000000000003
    vertex 108.46533351320481 1.5690234805195742 58.00000000000001
  endloop
endfacet
facet normal -3.0486124135652946e-16 0.0 1.0
  outer loop
    vertex 108.46533351320481 1.5690234805195742 58.00000000000001
    vertex 113.96533351320483 -1.9309765194804172 58.00000000000003
    vertex 108.98297160340984 1.6371718279414391 58.00000000000001
  endloop
endfacet
facet normal -3.0486124135652946e-16 0.0 1.0
  outer loop
    vertex 108.98297160340984 1.6371718279414391 58.00000000000001
    vertex 113.96533351320483 -1.9309765194804172 58.00000000000003
    vertex 109.46533351320481 1.8369726729507008 58.00000000000001
  endloop
endfacet
facet normal -3.0486124135652946e-16 0.0 1.0
  outer loop
    vertex 109.46533351320481 1.8369726729507008 58.00000000000001
    vertex 113.96533351320483 -1.9309765194804172 58.00000000000003
    vertex 109.8795470755779 2.1548099181464835 58.00000000000001
  endloop
endfacet
facet normal -3.0486124135652946e-16 0.0 1.0
  outer loop
    vertex 109.8795470755779 2.1548099181464835 58.00000000000001
    vertex 113.96533351320483 -1.9309765194804172 58.00000000000003
    vertex 110.19738432077368 2.5690234805195793 58.00000000000001
  endloop
endfacet
facet normal -3.0486124135652946e-16 0.0 1.0
  outer loop
    vertex 110.19738432077368 2.5690234805195793 58.00000000000001
    vertex 113.96533351320483 -1.9309765194804172 58.00000000000003
    vertex 110.39718516578293 3.051385390314539 58.00000000000001
  endloop
endfacet
facet normal -3.0486124135652946e-16 0.0 1.0
  outer loop
    vertex 110.39718516578293 3.051385390314539 58.00000000000001
    vertex 113.96533351320483 -1.9309765194804172 58.00000000000003
    vertex 110.4653335132048 3.5690234805195797 58.00000000000001
  endloop
endfacet
facet normal -3.0486124135652946e-16 0.0 1.0
  outer loop
    vertex 41.96533351320482 42.06902348051958 58.00000000000001
    vertex 47.46533351320482 36.3055097647685 58.00000000000001
    vertex 113.96533351320483 42.06902348051958 58.00000000000003
  endloop
endfacet
facet normal -3.0486124135652946e-16 0.0 1.0
  outer loop
    vertex 47.46533351320482 36.3055097647685 58.00000000000001
    vertex 41.96533351320482 42.06902348051958 58.00000000000001
    vertex 47.01589779128189 36.246340429472355 58.00000000000001
  endloop
endfacet
facet normal -3.0486124135652946e-16 0.0 1.0
  outer loop
    vertex 47.01589779128189 36.246340429472355 58.00000000000001
    vertex 41.96533351320482 42.06902348051958 58.00000000000001
    vertex 46.59709037108036 36.072864716002385 58.00000000000001
  endloop
endfacet
facet normal -3.0486124135652946e-16 0.0 1.0
  outer loop
    vertex 46.59709037108036 36.072864716002385 58.00000000000001
    vertex 41.96533351320482 42.06902348051958 58.00000000000001
    vertex 46.23745228617498 35.796904707549416 58.00000000000001
  endloop
endfacet
facet normal -3.0486124135652946e-16 0.0 1.0
  outer loop
    vertex 46.23745228617498 35.796904707549416 58.00000000000001
    vertex 41.96533351320482 42.06902348051958 58.00000000000001
    vertex 45.961492277722016 35.43726662264404 58.00000000000001
  endloop
endfacet
facet normal -3.0486124135652946e-16 0.0 1.0
  outer loop
    vertex 45.961492277722016 35.43726662264404 58.00000000000001
    vertex 41.96533351320482 42.06902348051958 58.00000000000001
    vertex 45.78801656425205 35.01845920244251 58.00000000000001
  endloop
endfacet
facet normal -3.0486124135652946e-16 0.0 1.0
  outer loop
    vertex 45.78801656425205 35.01845920244251 58.00000000000001
    vertex 41.96533351320482 42.06902348051958 58.00000000000001
    vertex 45.7288472289559 34.56902348051958 58.00000000000001
  endloop
endfacet
facet normal -3.0486124135652946e-16 0.0 1.0
  outer loop
    vertex 113.96533351320483 42.06902348051958 58.00000000000003
    vertex 47.46533351320482 36.3055097647685 58.00000000000001
    vertex 47.91476923512774 36.246340429472355 58.00000000000001
  endloop
endfacet
facet normal -3.0486124135652946e-16 0.0 1.0
  outer loop
    vertex 113.96533351320483 42.06902348051958 58.00000000000003
    vertex 47.91476923512774 36.246340429472355 58.00000000000001
    vertex 48.333576655329274 36.072864716002385 58.00000000000001
  endloop
endfacet
facet normal -3.0486124135652946e-16 0.0 1.0
  outer loop
    vertex 113.96533351320483 42.06902348051958 58.00000000000003
    vertex 48.333576655329274 36.072864716002385 58.00000000000001
    vertex 48.69321474023466 35.796904707549416 58.00000000000001
  endloop
endfacet
facet normal -3.0486124135652946e-16 0.0 1.0
  outer loop
    vertex 113.96533351320483 42.06902348051958 58.00000000000003
    vertex 48.69321474023466 35.796904707549416 58.00000000000001
    vertex 48.96917474868762 35.43726662264404 58.00000000000001
  endloop
endfacet
facet normal -3.0486124135652946e-16 0.0 1.0
  outer loop
    vertex 113.96533351320483 42.06902348051958 58.00000000000003
    vertex 48.96917474868762 35.43726662264404 58.00000000000001
    vertex 49.14265046215758 35.01845920244251 58.00000000000001
  endloop
endfacet
facet normal -3.0486124135652946e-16 0.0 1.0
  outer loop
    vertex 113.96533351320483 42.06902348051958 58.00000000000003
    vertex 49.14265046215758 35.01845920244251 58.00000000000001
    vertex 49.20181979745373 34.56902348051958 58.00000000000001
  endloop
endfacet
facet normal -3.0486124135652946e-16 0.0 1.0
  outer loop
    vertex 113.96533351320483 42.06902348051958 58.00000000000003
    vertex 49.20181979745373 34.56902348051958 58.00000000000001
    vertex 59.19080332095042 23.717145070982234 58.00000000000001
  endloop
endfacet
facet normal -3.0486124135652946e-16 0.0 1.0
  outer loop
    vertex 59.19080332095042 23.717145070982234 58.00000000000001
    vertex 49.20181979745373 34.56902348051958 58.00000000000001
    vertex 57.79794607773785 23.000703023627846 58.00000000000001
  endloop
endfacet
facet normal -3.0486124135652946e-16 0.0 1.0
  outer loop
    vertex 57.79794607773785 23.000703023627846 58.00000000000001
    vertex 49.20181979745373 34.56902348051958 58.00000000000001
    vertex 56.63797814075259 21.94817516539641 58.00000000000001
  endloop
endfacet
facet normal -3.0486124135652946e-16 0.0 1.0
  outer loop
    vertex 56.63797814075259 21.94817516539641 58.00000000000001
    vertex 49.20181979745373 34.56902348051958 58.00000000000001
    vertex 55.78994940796253 20.631289530441887 58.00000000000001
  endloop
endfacet
facet normal -3.0486124135652946e-16 0.0 1.0
  outer loop
    vertex 55.78994940796253 20.631289530441887 58.00000000000001
    vertex 49.20181979745373 34.56902348051958 58.00000000000001
    vertex 55.31165163607359 19.13978969853001 58.00000000000001
  endloop
endfacet
facet normal -3.0486124135652946e-16 0.0 1.0
  outer loop
    vertex 55.31165163607359 19.13978969853001 58.00000000000001
    vertex 49.20181979745373 34.56902348051958 58.00000000000001
    vertex 55.23568002781554 17.575318918385562 58.00000000000001
  endloop
endfacet
facet normal -3.0486124135652946e-16 0.0 1.0
  outer loop
    vertex 55.31165163607359 19.13978969853001 58.00000000000001
    vertex 55.23568002781554 17.575318918385562 58.00000000000001
    vertex 55.25965460763236 18.069023480519583 58.00000000000001
  endloop
endfacet
facet normal -3.0486124135652946e-16 0.0 1.0
  outer loop
    vertex 113.96533351320483 42.06902348051958 58.00000000000003
    vertex 59.19080332095042 23.717145070982234 58.00000000000001
    vertex 60.72162895107079 24.048676965908854 58.00000000000001
  endloop
endfacet
facet normal -3.0486124135652946e-16 0.0 1.0
  outer loop
    vertex 113.96533351320483 42.06902348051958 58.00000000000003
    vertex 60.72162895107079 24.048676965908854 58.00000000000001
    vertex 61.21533351320482 24.024702386092034 58.00000000000001
  endloop
endfacet
facet normal -3.0486124135652946e-16 0.0 1.0
  outer loop
    vertex 113.96533351320483 42.06902348051958 58.00000000000003
    vertex 61.21533351320482 24.024702386092034 58.00000000000001
    vertex 62.286099731215245 23.97270535765081 58.00000000000001
  endloop
endfacet
facet normal -3.0486124135652946e-16 0.0 1.0
  outer loop
    vertex 113.96533351320483 42.06902348051958 58.00000000000003
    vertex 62.286099731215245 23.97270535765081 58.00000000000001
    vertex 63.77759956312712 23.494407585761863 58.00000000000001
  endloop
endfacet
facet normal -3.0486124135652946e-16 0.0 1.0
  outer loop
    vertex 113.96533351320483 42.06902348051958 58.00000000000003
    vertex 63.77759956312712 23.494407585761863 58.00000000000001
    vertex 65.09448519808164 22.646378852971818 58.00000000000001
  endloop
endfacet
facet normal -3.0486124135652946e-16 0.0 1.0
  outer loop
    vertex 113.96533351320483 42.06902348051958 58.00000000000003
    vertex 65.09448519808164 22.646378852971818 58.00000000000001
    vertex 66.14701305631307 21.486410915986557 58.00000000000001
  endloop
endfacet
facet normal -3.0486124135652946e-16 0.0 1.0
  outer loop
    vertex 113.96533351320483 42.06902348051958 58.00000000000003
    vertex 66.14701305631307 21.486410915986557 58.00000000000001
    vertex 66.86345510366748 20.093553672773982 58.00000000000001
  endloop
endfacet
facet normal -3.0486124135652946e-16 0.0 1.0
  outer loop
    vertex 113.96533351320483 42.06902348051958 58.00000000000003
    vertex 66.86345510366748 20.093553672773982 58.00000000000001
    vertex 67.19498699859409 18.562728042653603 58.00000000000001
  endloop
endfacet
facet normal -3.0486124135652946e-16 0.0 1.0
  outer loop
    vertex 113.96533351320483 42.06902348051958 58.00000000000003
    vertex 67.19498699859409 18.562728042653603 58.00000000000001
    vertex 80.21533351320483 24.81902348051958 58.00000000000001
  endloop
endfacet
facet normal -3.0486124135652946e-16 0.0 1.0
  outer loop
    vertex 80.21533351320483 24.81902348051958 58.00000000000001
    vertex 67.19498699859409 18.562728042653603 58.00000000000001
    vertex 80.21533351320483 11.319023480519581 58.00000000000001
  endloop
endfacet
facet normal -3.0486124135652946e-16 0.0 1.0
  outer loop
    vertex 113.96533351320483 42.06902348051958 58.00000000000003
    vertex 80.21533351320483 24.81902348051958 58.00000000000001
    vertex 89.21533351320483 24.81902348051958 58.00000000000001
  endloop
endfacet
facet normal -3.0486124135652946e-16 0.0 1.0
  outer loop
    vertex 113.96533351320483 42.06902348051958 58.00000000000003
    vertex 89.21533351320483 24.81902348051958 58.00000000000001
    vertex 106.53348186062664 4.086661570724609 58.00000000000001
  endloop
endfacet
facet normal -3.0486124135652946e-16 0.0 1.0
  outer loop
    vertex 106.53348186062664 4.086661570724609 58.00000000000001
    vertex 89.21533351320483 24.81902348051958 58.00000000000001
    vertex 106.46533351320481 3.5690234805195677 58.00000000000001
  endloop
endfacet
facet normal -3.0486124135652946e-16 0.0 1.0
  outer loop
    vertex 113.96533351320483 42.06902348051958 58.00000000000003
    vertex 106.53348186062664 4.086661570724609 58.00000000000001
    vertex 106.7332827056359 4.569023480519568 58.00000000000001
  endloop
endfacet
facet normal -3.0486124135652946e-16 0.0 1.0
  outer loop
    vertex 113.96533351320483 42.06902348051958 58.00000000000003
    vertex 106.7332827056359 4.569023480519568 58.00000000000001
    vertex 107.0511199508317 4.983237042892665 58.00000000000001
  endloop
endfacet
facet normal -3.0486124135652946e-16 0.0 1.0
  outer loop
    vertex 113.96533351320483 42.06902348051958 58.00000000000003
    vertex 107.0511199508317 4.983237042892665 58.00000000000001
    vertex 107.46533351320481 5.301074288088448 58.00000000000001
  endloop
endfacet
facet normal -3.0486124135652946e-16 0.0 1.0
  outer loop
    vertex 113.96533351320483 42.06902348051958 58.00000000000003
    vertex 107.46533351320481 5.301074288088448 58.00000000000001
    vertex 107.94769542299974 5.500875133097709 58.00000000000001
  endloop
endfacet
facet normal -3.0486124135652946e-16 0.0 1.0
  outer loop
    vertex 113.96533351320483 42.06902348051958 58.00000000000003
    vertex 107.94769542299974 5.500875133097709 58.00000000000001
    vertex 108.46533351320481 5.569023480519575 58.00000000000001
  endloop
endfacet
facet normal -3.0486124135652946e-16 0.0 1.0
  outer loop
    vertex 113.96533351320483 42.06902348051958 58.00000000000003
    vertex 108.46533351320481 5.569023480519575 58.00000000000001
    vertex 108.98297160340984 5.500875133097711 58.00000000000001
  endloop
endfacet
facet normal -3.0486124135652946e-16 0.0 1.0
  outer loop
    vertex 113.96533351320483 42.06902348051958 58.00000000000003
    vertex 108.98297160340984 5.500875133097711 58.00000000000001
    vertex 109.46533351320481 5.301074288088454 58.00000000000001
  endloop
endfacet
facet normal -3.0486124135652946e-16 0.0 1.0
  outer loop
    vertex 113.96533351320483 42.06902348051958 58.00000000000003
    vertex 109.46533351320481 5.301074288088454 58.00000000000001
    vertex 109.8795470755779 4.983237042892674 58.00000000000001
  endloop
endfacet
facet normal -3.0486124135652946e-16 0.0 1.0
  outer loop
    vertex 113.96533351320483 42.06902348051958 58.00000000000003
    vertex 109.8795470755779 4.983237042892674 58.00000000000001
    vertex 110.19738432077368 4.569023480519579 58.00000000000001
  endloop
endfacet
facet normal -3.0486124135652946e-16 0.0 1.0
  outer loop
    vertex 113.96533351320483 42.06902348051958 58.00000000000003
    vertex 110.19738432077368 4.569023480519579 58.00000000000001
    vertex 110.39718516578293 4.086661570724621 58.00000000000001
  endloop
endfacet
facet normal -3.0486124135652946e-16 0.0 1.0
  outer loop
    vertex 113.96533351320483 42.06902348051958 58.00000000000003
    vertex 110.39718516578293 4.086661570724621 58.00000000000001
    vertex 110.4653335132048 3.5690234805195797 58.00000000000001
  endloop
endfacet
facet normal -3.0486124135652946e-16 0.0 1.0
  outer loop
    vertex 113.96533351320483 42.06902348051958 58.00000000000003
    vertex 110.4653335132048 3.5690234805195797 58.00000000000001
    vertex 113.96533351320483 -1.9309765194804172 58.00000000000003
  endloop
endfacet
facet normal 0.0 1.0 0.0
  outer loop
    vertex 41.96533351320482 42.06902348051958 58.00000000000001
    vertex 113.96533351320483 42.06902348051958 54.000000000000014
    vertex 41.96533351320482 42.06902348051958 53.99999999999999
  endloop
endfacet
facet normal 0.0 1.0 0.0
  outer loop
    vertex 113.96533351320483 42.06902348051958 54.000000000000014
    vertex 41.96533351320482 42.06902348051958 58.00000000000001
    vertex 113.96533351320483 42.06902348051958 58.00000000000003
  endloop
endfacet
facet normal 1.0 1.3656012022023717e-16 -3.3047549093297367e-15
  outer loop
    vertex 113.96533351320483 42.06902348051958 54.000000000000014
    vertex 113.96533351320483 40.069023480519576 56.00000000000001
    vertex 113.96533351320483 40.069023480519576 54.000000000000014
  endloop
endfacet
facet normal 1.0 1.3656012022023717e-16 -3.3047549093297367e-15
  outer loop
    vertex 113.96533351320483 40.069023480519576 56.00000000000001
    vertex 113.96533351320483 -1.9309765194804172 58.00000000000003
    vertex 113.96533351320483 -1.9309765194804172 56.00000000000001
  endloop
endfacet
facet normal 1.0 1.3656012022023717e-16 -3.3047549093297367e-15
  outer loop
    vertex 113.96533351320483 -1.9309765194804172 58.00000000000003
    vertex 113.96533351320483 40.069023480519576 56.00000000000001
    vertex 113.96533351320483 42.06902348051958 58.00000000000003
  endloop
endfacet
facet normal 1.0 1.3656012022023717e-16 -3.3047549093297367e-15
  outer loop
    vertex 113.96533351320483 42.06902348051958 58.00000000000003
    vertex 113.96533351320483 40.069023480519576 56.00000000000001
    vertex 113.96533351320483 42.06902348051958 54.000000000000014
  endloop
endfacet
facet normal -1.0 0.0 0.0
  outer loop
    vertex 89.21533351320483 24.81902348051958 58.00000000000001
    vertex 89.21533351320483 11.319023480519581 56.0
    vertex 89.21533351320483 11.319023480519581 58.00000000000001
  endloop
endfacet
facet normal -1.0 0.0 0.0
  outer loop
    vertex 89.21533351320483 11.319023480519581 56.0
    vertex 89.21533351320483 24.81902348051958 58.00000000000001
    vertex 89.21533351320483 24.81902348051958 56.0
  endloop
endfacet
facet normal 0.0 -1.0 0.0
  outer loop
    vertex 89.21533351320483 24.81902348051958 58.00000000000001
    vertex 80.21533351320483 24.81902348051958 56.0
    vertex 89.21533351320483 24.81902348051958 56.0
  endloop
endfacet
facet normal 0.0 -1.0 0.0
  outer loop
    vertex 80.21533351320483 24.81902348051958 56.0
    vertex 89.21533351320483 24.81902348051958 58.00000000000001
    vertex 80.21533351320483 24.81902348051958 58.00000000000001
  endloop
endfacet
facet normal 1.0 0.0 0.0
  outer loop
    vertex 80.21533351320483 24.81902348051958 56.0
    vertex 80.21533351320483 11.319023480519581 58.00000000000001
    vertex 80.21533351320483 11.319023480519581 56.0
  endloop
endfacet
facet normal 1.0 0.0 0.0
  outer loop
    vertex 80.21533351320483 11.319023480519581 58.00000000000001
    vertex 80.21533351320483 24.81902348051958 56.0
    vertex 80.21533351320483 24.81902348051958 58.00000000000001
  endloop
endfacet
facet normal 0.0 1.0 0.0
  outer loop
    vertex 80.21533351320483 11.319023480519581 58.00000000000001
    vertex 89.21533351320483 11.319023480519581 56.0
    vertex 80.21533351320483 11.319023480519581 56.0
  endloop
endfacet
facet normal 0.0 1.0 0.0
  outer loop
    vertex 89.21533351320483 11.319023480519581 56.0
    vertex 80.21533351320483 11.319023480519581 58.00000000000001
    vertex 89.21533351320483 11.319023480519581 58.00000000000001
  endloop
endfacet
facet normal -0.9988230162437016 0.04850342484644076 -3.246307844205975e-19
  outer loop
    vertex 67.17101241877727 18.069023480519583 58.00000000000001
    vertex 67.11901539033605 16.99825726250916 56.0
    vertex 67.11901539033605 16.99825726250916 58.00000000000001
  endloop
endfacet
facet normal -0.9988230162437016 0.04850342484644076 -3.246307844205975e-19
  outer loop
    vertex 67.11901539033605 16.99825726250916 56.0
    vertex 67.17101241877727 18.069023480519583 58.00000000000001
    vertex 67.17101241877727 18.069023480519583 56.0
  endloop
endfacet
facet normal -0.9988230162437016 0.04850342484644076 -3.246307844205975e-19
  outer loop
    vertex 67.17101241877727 18.069023480519583 56.0
    vertex 67.17101241877727 18.069023480519583 58.00000000000001
    vertex 67.19498699859409 18.562728042653603 58.00000000000001
  endloop
endfacet
facet normal -0.9988230162437016 0.04850342484644076 -3.246307844205975e-19
  outer loop
    vertex 67.17101241877727 18.069023480519583 56.0
    vertex 67.19498699859409 18.562728042653603 58.00000000000001
    vertex 67.19498699859409 18.562728042653603 56.0
  endloop
endfacet
facet normal -0.9773425573846941 -0.21166370856796832 -1.0709468130239798e-31
  outer loop
    vertex 66.86345510366748 20.093553672773982 58.00000000000001
    vertex 67.19498699859409 18.562728042653603 56.0
    vertex 67.19498699859409 18.562728042653603 58.00000000000001
  endloop
endfacet
facet normal -0.9773425573846941 -0.21166370856796832 -1.0709468130239798e-31
  outer loop
    vertex 67.19498699859409 18.562728042653603 56.0
    vertex 66.86345510366748 20.093553672773982 58.00000000000001
    vertex 66.86345510366748 20.093553672773982 56.0
  endloop
endfacet
facet normal -0.8892578183748631 -0.4574063100342834 -2.3143213038383198e-31
  outer loop
    vertex 66.14701305631307 21.486410915986557 58.00000000000001
    vertex 66.86345510366748 20.093553672773982 56.0
    vertex 66.86345510366748 20.093553672773982 58.00000000000001
  endloop
endfacet
facet normal -0.8892578183748631 -0.4574063100342834 -2.3143213038383198e-31
  outer loop
    vertex 66.86345510366748 20.093553672773982 56.0
    vertex 66.14701305631307 21.486410915986557 58.00000000000001
    vertex 66.14701305631307 21.486410915986557 56.0
  endloop
endfacet
facet normal -0.740571628610813 -0.671977427371432 -3.3999786223928775e-31
  outer loop
    vertex 65.09448519808164 22.646378852971818 58.00000000000001
    vertex 66.14701305631307 21.486410915986557 56.0
    vertex 66.14701305631307 21.486410915986557 58.00000000000001
  endloop
endfacet
facet normal -0.740571628610813 -0.671977427371432 -3.3999786223928775e-31
  outer loop
    vertex 66.14701305631307 21.486410915986557 56.0
    vertex 65.09448519808164 22.646378852971818 58.00000000000001
    vertex 65.09448519808164 22.646378852971818 56.0
  endloop
endfacet
facet normal -0.5414167062094155 -0.8407543935284236 -4.253933016561705e-31
  outer loop
    vertex 65.09448519808164 22.646378852971818 58.00000000000001
    vertex 63.77759956312712 23.494407585761863 56.0
    vertex 65.09448519808164 22.646378852971818 56.0
  endloop
endfacet
facet normal -0.5414167062094155 -0.8407543935284236 -4.253933016561705e-31
  outer loop
    vertex 63.77759956312712 23.494407585761863 56.0
    vertex 65.09448519808164 22.646378852971818 58.00000000000001
    vertex 63.77759956312712 23.494407585761863 58.00000000000001
  endloop
endfacet
facet normal -0.3053651300132624 -0.9522353371787792 -4.817988905608535e-31
  outer loop
    vertex 63.77759956312712 23.494407585761863 58.00000000000001
    vertex 62.286099731215245 23.97270535765081 56.0
    vertex 63.77759956312712 23.494407585761863 56.0
  endloop
endfacet
facet normal -0.3053651300132624 -0.9522353371787792 -4.817988905608535e-31
  outer loop
    vertex 62.286099731215245 23.97270535765081 56.0
    vertex 63.77759956312712 23.494407585761863 58.00000000000001
    vertex 62.286099731215245 23.97270535765081 58.00000000000001
  endloop
endfacet
facet normal -0.04850342484643916 -0.9988230162437016 -4.780954937319817e-30
  outer loop
    vertex 62.286099731215245 23.97270535765081 58.00000000000001
    vertex 61.21533351320482 24.024702386092034 56.0
    vertex 62.286099731215245 23.97270535765081 56.0
  endloop
endfacet
facet normal -0.04850342484643916 -0.9988230162437016 -4.780954937319817e-30
  outer loop
    vertex 61.21533351320482 24.024702386092034 56.0
    vertex 62.286099731215245 23.97270535765081 58.00000000000001
    vertex 60.72162895107079 24.048676965908854 56.0
  endloop
endfacet
facet normal -0.04850342484643916 -0.9988230162437016 -4.780954937319817e-30
  outer loop
    vertex 60.72162895107079 24.048676965908854 56.0
    vertex 62.286099731215245 23.97270535765081 58.00000000000001
    vertex 60.72162895107079 24.048676965908854 58.00000000000001
  endloop
endfacet
facet normal -0.04850342484643916 -0.9988230162437016 -4.780954937319817e-30
  outer loop
    vertex 60.72162895107079 24.048676965908854 58.00000000000001
    vertex 62.286099731215245 23.97270535765081 58.00000000000001
    vertex 61.21533351320482 24.024702386092034 58.00000000000001
  endloop
endfacet
facet normal 0.21166370856796873 -0.9773425573846942 -4.945022952424272e-31
  outer loop
    vertex 60.72162895107079 24.048676965908854 58.00000000000001
    vertex 59.19080332095042 23.717145070982234 56.0
    vertex 60.72162895107079 24.048676965908854 56.0
  endloop
endfacet
facet normal 0.21166370856796873 -0.9773425573846942 -4.945022952424272e-31
  outer loop
    vertex 59.19080332095042 23.717145070982234 56.0
    vertex 60.72162895107079 24.048676965908854 58.00000000000001
    vertex 59.19080332095042 23.717145070982234 58.00000000000001
  endloop
endfacet
facet normal 0.4574063100342827 -0.8892578183748634 -4.499343949836376e-31
  outer loop
    vertex 59.19080332095042 23.717145070982234 58.00000000000001
    vertex 57.79794607773785 23.000703023627846 56.0
    vertex 59.19080332095042 23.717145070982234 56.0
  endloop
endfacet
facet normal 0.4574063100342827 -0.8892578183748634 -4.499343949836376e-31
  outer loop
    vertex 57.79794607773785 23.000703023627846 56.0
    vertex 59.19080332095042 23.717145070982234 58.00000000000001
    vertex 57.79794607773785 23.000703023627846 58.00000000000001
  endloop
endfacet
facet normal 0.671977427371434 -0.7405716286108113 -3.747042092584557e-31
  outer loop
    vertex 57.79794607773785 23.000703023627846 58.00000000000001
    vertex 56.63797814075259 21.94817516539641 56.0
    vertex 57.79794607773785 23.000703023627846 56.0
  endloop
endfacet
facet normal 0.671977427371434 -0.7405716286108113 -3.747042092584557e-31
  outer loop
    vertex 56.63797814075259 21.94817516539641 56.0
    vertex 57.79794607773785 23.000703023627846 58.00000000000001
    vertex 56.63797814075259 21.94817516539641 58.00000000000001
  endloop
endfacet
facet normal 0.8407543935284215 -0.5414167062094188 -2.7393855090029614e-31
  outer loop
    vertex 56.63797814075259 21.94817516539641 56.0
    vertex 55.78994940796253 20.631289530441887 58.00000000000001
    vertex 55.78994940796253 20.631289530441887 56.0
  endloop
endfacet
facet normal 0.8407543935284215 -0.5414167062094188 -2.7393855090029614e-31
  outer loop
    vertex 55.78994940796253 20.631289530441887 58.00000000000001
    vertex 56.63797814075259 21.94817516539641 56.0
    vertex 56.63797814075259 21.94817516539641 58.00000000000001
  endloop
endfacet
facet normal 0.9522353371787798 -0.30536513001326077 -1.5450443300313873e-31
  outer loop
    vertex 55.78994940796253 20.631289530441887 56.0
    vertex 55.31165163607359 19.13978969853001 58.00000000000001
    vertex 55.31165163607359 19.13978969853001 56.0
  endloop
endfacet
facet normal 0.9522353371787798 -0.30536513001326077 -1.5450443300313873e-31
  outer loop
    vertex 55.31165163607359 19.13978969853001 58.00000000000001
    vertex 55.78994940796253 20.631289530441887 56.0
    vertex 55.78994940796253 20.631289530441887 58.00000000000001
  endloop
endfacet
facet normal 0.9988230162437016 -0.048503424846440664 -3.246307844518567e-19
  outer loop
    vertex 55.25965460763236 18.069023480519583 56.0
    vertex 55.23568002781554 17.575318918385562 58.00000000000001
    vertex 55.23568002781554 17.575318918385562 56.0
  endloop
endfacet
facet normal 0.9988230162437016 -0.048503424846440664 -3.246307844518567e-19
  outer loop
    vertex 55.23568002781554 17.575318918385562 58.00000000000001
    vertex 55.25965460763236 18.069023480519583 56.0
    vertex 55.25965460763236 18.069023480519583 58.00000000000001
  endloop
endfacet
facet normal 0.9988230162437016 -0.048503424846440664 -3.246307844518567e-19
  outer loop
    vertex 55.25965460763236 18.069023480519583 58.00000000000001
    vertex 55.25965460763236 18.069023480519583 56.0
    vertex 55.31165163607359 19.13978969853001 56.0
  endloop
endfacet
facet normal 0.9988230162437016 -0.048503424846440664 -3.246307844518567e-19
  outer loop
    vertex 55.25965460763236 18.069023480519583 58.00000000000001
    vertex 55.31165163607359 19.13978969853001 56.0
    vertex 55.31165163607359 19.13978969853001 58.00000000000001
  endloop
endfacet
facet normal 0.9773425573846941 0.21166370856796832 1.0709468130239798e-31
  outer loop
    vertex 55.23568002781554 17.575318918385562 56.0
    vertex 55.56721192274216 16.044493288265183 58.00000000000001
    vertex 55.56721192274216 16.044493288265183 56.0
  endloop
endfacet
facet normal 0.9773425573846941 0.21166370856796832 1.0709468130239798e-31
  outer loop
    vertex 55.56721192274216 16.044493288265183 58.00000000000001
    vertex 55.23568002781554 17.575318918385562 56.0
    vertex 55.23568002781554 17.575318918385562 58.00000000000001
  endloop
endfacet
facet normal 0.8892578183748624 0.4574063100342849 2.314321303838327e-31
  outer loop
    vertex 55.56721192274216 16.044493288265183 56.0
    vertex 56.28365397009655 14.651636045052612 58.00000000000001
    vertex 56.28365397009655 14.651636045052612 56.0
  endloop
endfacet
facet normal 0.8892578183748624 0.4574063100342849 2.314321303838327e-31
  outer loop
    vertex 56.28365397009655 14.651636045052612 58.00000000000001
    vertex 55.56721192274216 16.044493288265183 56.0
    vertex 55.56721192274216 16.044493288265183 58.00000000000001
  endloop
endfacet
facet normal 0.7405716286108138 0.671977427371431 3.3999786223928723e-31
  outer loop
    vertex 56.28365397009655 14.651636045052612 56.0
    vertex 57.33618182832799 13.491668108067351 58.00000000000001
    vertex 57.33618182832799 13.491668108067351 56.0
  endloop
endfacet
facet normal 0.7405716286108138 0.671977427371431 3.3999786223928723e-31
  outer loop
    vertex 57.33618182832799 13.491668108067351 58.00000000000001
    vertex 56.28365397009655 14.651636045052612 56.0
    vertex 56.28365397009655 14.651636045052612 58.00000000000001
  endloop
endfacet
facet normal 0.5414167062094168 0.8407543935284228 4.253933016561701e-31
  outer loop
    vertex 57.33618182832799 13.491668108067351 58.00000000000001
    vertex 58.65306746328251 12.643639375277301 56.0
    vertex 57.33618182832799 13.491668108067351 56.0
  endloop
endfacet
facet normal 0.5414167062094168 0.8407543935284228 4.253933016561701e-31
  outer loop
    vertex 58.65306746328251 12.643639375277301 56.0
    vertex 57.33618182832799 13.491668108067351 58.00000000000001
    vertex 58.65306746328251 12.643639375277301 58.00000000000001
  endloop
endfacet
facet normal 0.3053651300132624 0.9522353371787792 4.817988905608535e-31
  outer loop
    vertex 58.65306746328251 12.643639375277301 58.00000000000001
    vertex 60.14456729519439 12.165341603388354 56.0
    vertex 58.65306746328251 12.643639375277301 56.0
  endloop
endfacet
facet normal 0.3053651300132624 0.9522353371787792 4.817988905608535e-31
  outer loop
    vertex 60.14456729519439 12.165341603388354 56.0
    vertex 58.65306746328251 12.643639375277301 58.00000000000001
    vertex 60.14456729519439 12.165341603388354 58.00000000000001
  endloop
endfacet
facet normal 0.04850342484643991 0.9988230162437016 -1.0285585781121119e-30
  outer loop
    vertex 60.14456729519439 12.165341603388354 58.00000000000001
    vertex 61.21533351320482 12.11334457494713 56.0
    vertex 60.14456729519439 12.165341603388354 56.0
  endloop
endfacet
facet normal 0.04850342484643991 0.9988230162437016 -1.0285585781121119e-30
  outer loop
    vertex 61.21533351320482 12.11334457494713 56.0
    vertex 60.14456729519439 12.165341603388354 58.00000000000001
    vertex 61.70903807533884 12.089369995130307 56.0
  endloop
endfacet
facet normal 0.04850342484643991 0.9988230162437016 -1.0285585781121119e-30
  outer loop
    vertex 61.70903807533884 12.089369995130307 56.0
    vertex 60.14456729519439 12.165341603388354 58.00000000000001
    vertex 61.70903807533884 12.089369995130307 58.00000000000001
  endloop
endfacet
facet normal 0.04850342484643991 0.9988230162437016 -1.0285585781121119e-30
  outer loop
    vertex 61.70903807533884 12.089369995130307 58.00000000000001
    vertex 60.14456729519439 12.165341603388354 58.00000000000001
    vertex 61.21533351320482 12.11334457494713 58.00000000000001
  endloop
endfacet
facet normal -0.21166370856796782 0.9773425573846942 4.945022952424272e-31
  outer loop
    vertex 61.70903807533884 12.089369995130307 58.00000000000001
    vertex 63.23986370545921 12.420901890056925 56.0
    vertex 61.70903807533884 12.089369995130307 56.0
  endloop
endfacet
facet normal -0.21166370856796782 0.9773425573846942 4.945022952424272e-31
  outer loop
    vertex 63.23986370545921 12.420901890056925 56.0
    vertex 61.70903807533884 12.089369995130307 58.00000000000001
    vertex 63.23986370545921 12.420901890056925 58.00000000000001
  endloop
endfacet
facet normal -0.4574063100342842 0.8892578183748628 4.499343949836373e-31
  outer loop
    vertex 63.23986370545921 12.420901890056925 58.00000000000001
    vertex 64.63272094867179 13.13734393741132 56.0
    vertex 63.23986370545921 12.420901890056925 56.0
  endloop
endfacet
facet normal -0.4574063100342842 0.8892578183748628 4.499343949836373e-31
  outer loop
    vertex 64.63272094867179 13.13734393741132 56.0
    vertex 63.23986370545921 12.420901890056925 58.00000000000001
    vertex 64.63272094867179 13.13734393741132 58.00000000000001
  endloop
endfacet
facet normal -0.671977427371433 0.7405716286108122 3.747042092584561e-31
  outer loop
    vertex 64.63272094867179 13.13734393741132 58.00000000000001
    vertex 65.79268888565704 14.189871795642754 56.0
    vertex 64.63272094867179 13.13734393741132 56.0
  endloop
endfacet
facet normal -0.671977427371433 0.7405716286108122 3.747042092584561e-31
  outer loop
    vertex 65.79268888565704 14.189871795642754 56.0
    vertex 64.63272094867179 13.13734393741132 58.00000000000001
    vertex 65.79268888565704 14.189871795642754 58.00000000000001
  endloop
endfacet
facet normal -0.840754393528422 0.5414167062094181 2.739385509002957e-31
  outer loop
    vertex 66.6407176184471 15.506757430597279 58.00000000000001
    vertex 65.79268888565704 14.189871795642754 56.0
    vertex 65.79268888565704 14.189871795642754 58.00000000000001
  endloop
endfacet
facet normal -0.840754393528422 0.5414167062094181 2.739385509002957e-31
  outer loop
    vertex 65.79268888565704 14.189871795642754 56.0
    vertex 66.6407176184471 15.506757430597279 58.00000000000001
    vertex 66.6407176184471 15.506757430597279 56.0
  endloop
endfacet
facet normal -0.95223533717878 0.30536513001326027 1.5450443300313847e-31
  outer loop
    vertex 67.11901539033605 16.99825726250916 58.00000000000001
    vertex 66.6407176184471 15.506757430597279 56.0
    vertex 66.6407176184471 15.506757430597279 58.00000000000001
  endloop
endfacet
facet normal -0.95223533717878 0.30536513001326027 1.5450443300313847e-31
  outer loop
    vertex 66.6407176184471 15.506757430597279 56.0
    vertex 67.11901539033605 16.99825726250916 58.00000000000001
    vertex 67.11901539033605 16.99825726250916 56.0
  endloop
endfacet
facet normal -0.3826834323650959 0.9238795325112843 0.0
  outer loop
    vertex 47.91476923512775 32.89170653156682 58.00000000000001
    vertex 48.333576655329274 33.06518224503677 56.0
    vertex 47.91476923512775 32.89170653156682 56.0
  endloop
endfacet
facet normal -0.3826834323650959 0.9238795325112843 0.0
  outer loop
    vertex 48.333576655329274 33.06518224503677 56.0
    vertex 47.91476923512775 32.89170653156682 58.00000000000001
    vertex 48.333576655329274 33.06518224503677 58.00000000000001
  endloop
endfacet
facet normal -0.6087614290087219 0.7933533402912343 0.0
  outer loop
    vertex 48.333576655329274 33.06518224503677 58.00000000000001
    vertex 48.69321474023466 33.34114225348974 56.0
    vertex 48.333576655329274 33.06518224503677 56.0
  endloop
endfacet
facet normal -0.6087614290087219 0.7933533402912343 0.0
  outer loop
    vertex 48.69321474023466 33.34114225348974 56.0
    vertex 48.333576655329274 33.06518224503677 58.00000000000001
    vertex 48.69321474023466 33.34114225348974 58.00000000000001
  endloop
endfacet
facet normal -0.7933533402912343 0.6087614290087219 0.0
  outer loop
    vertex 48.96917474868762 33.70078033839512 58.00000000000001
    vertex 48.69321474023466 33.34114225348974 56.0
    vertex 48.69321474023466 33.34114225348974 58.00000000000001
  endloop
endfacet
facet normal -0.7933533402912343 0.6087614290087219 0.0
  outer loop
    vertex 48.69321474023466 33.34114225348974 56.0
    vertex 48.96917474868762 33.70078033839512 58.00000000000001
    vertex 48.96917474868762 33.70078033839512 56.0
  endloop
endfacet
facet normal -0.9238795325112843 0.3826834323650959 0.0
  outer loop
    vertex 49.14265046215758 34.119587758596644 58.00000000000001
    vertex 48.96917474868762 33.70078033839512 56.0
    vertex 48.96917474868762 33.70078033839512 58.00000000000001
  endloop
endfacet
facet normal -0.9238795325112843 0.3826834323650959 0.0
  outer loop
    vertex 48.96917474868762 33.70078033839512 56.0
    vertex 49.14265046215758 34.119587758596644 58.00000000000001
    vertex 49.14265046215758 34.119587758596644 56.0
  endloop
endfacet
facet normal -0.9914448613738109 0.13052619222004846 0.0
  outer loop
    vertex 49.20181979745373 34.56902348051958 58.00000000000001
    vertex 49.14265046215758 34.119587758596644 56.0
    vertex 49.14265046215758 34.119587758596644 58.00000000000001
  endloop
endfacet
facet normal -0.9914448613738109 0.13052619222004846 0.0
  outer loop
    vertex 49.14265046215758 34.119587758596644 56.0
    vertex 49.20181979745373 34.56902348051958 58.00000000000001
    vertex 49.20181979745373 34.56902348051958 56.0
  endloop
endfacet
facet normal -0.9914448613738109 -0.13052619222004846 -0.0
  outer loop
    vertex 49.14265046215758 35.01845920244251 58.00000000000001
    vertex 49.20181979745373 34.56902348051958 56.0
    vertex 49.20181979745373 34.56902348051958 58.00000000000001
  endloop
endfacet
facet normal -0.9914448613738109 -0.13052619222004846 -0.0
  outer loop
    vertex 49.20181979745373 34.56902348051958 56.0
    vertex 49.14265046215758 35.01845920244251 58.00000000000001
    vertex 49.14265046215758 35.01845920244251 56.0
  endloop
endfacet
facet normal -0.9238795325112843 -0.3826834323650959 -0.0
  outer loop
    vertex 48.96917474868762 35.43726662264404 58.00000000000001
    vertex 49.14265046215758 35.01845920244251 56.0
    vertex 49.14265046215758 35.01845920244251 58.00000000000001
  endloop
endfacet
facet normal -0.9238795325112843 -0.3826834323650959 -0.0
  outer loop
    vertex 49.14265046215758 35.01845920244251 56.0
    vertex 48.96917474868762 35.43726662264404 58.00000000000001
    vertex 48.96917474868762 35.43726662264404 56.0
  endloop
endfacet
facet normal -0.7933533402912343 -0.6087614290087219 -0.0
  outer loop
    vertex 48.69321474023466 35.796904707549416 58.00000000000001
    vertex 48.96917474868762 35.43726662264404 56.0
    vertex 48.96917474868762 35.43726662264404 58.00000000000001
  endloop
endfacet
facet normal -0.7933533402912343 -0.6087614290087219 -0.0
  outer loop
    vertex 48.96917474868762 35.43726662264404 56.0
    vertex 48.69321474023466 35.796904707549416 58.00000000000001
    vertex 48.69321474023466 35.796904707549416 56.0
  endloop
endfacet
facet normal -0.6087614290087219 -0.7933533402912343 -0.0
  outer loop
    vertex 48.69321474023466 35.796904707549416 58.00000000000001
    vertex 48.333576655329274 36.072864716002385 56.0
    vertex 48.69321474023466 35.796904707549416 56.0
  endloop
endfacet
facet normal -0.6087614290087219 -0.7933533402912343 -0.0
  outer loop
    vertex 48.333576655329274 36.072864716002385 56.0
    vertex 48.69321474023466 35.796904707549416 58.00000000000001
    vertex 48.333576655329274 36.072864716002385 58.00000000000001
  endloop
endfacet
facet normal -0.3826834323650914 -0.9238795325112861 -0.0
  outer loop
    vertex 48.333576655329274 36.072864716002385 58.00000000000001
    vertex 47.91476923512774 36.246340429472355 56.0
    vertex 48.333576655329274 36.072864716002385 56.0
  endloop
endfacet
facet normal -0.3826834323650914 -0.9238795325112861 -0.0
  outer loop
    vertex 47.91476923512774 36.246340429472355 56.0
    vertex 48.333576655329274 36.072864716002385 58.00000000000001
    vertex 47.91476923512774 36.246340429472355 58.00000000000001
  endloop
endfacet
facet normal -0.13052619222005007 -0.9914448613738107 -0.0
  outer loop
    vertex 47.91476923512774 36.246340429472355 58.00000000000001
    vertex 47.46533351320482 36.3055097647685 56.0
    vertex 47.91476923512774 36.246340429472355 56.0
  endloop
endfacet
facet normal -0.13052619222005007 -0.9914448613738107 -0.0
  outer loop
    vertex 47.46533351320482 36.3055097647685 56.0
    vertex 47.91476923512774 36.246340429472355 58.00000000000001
    vertex 47.46533351320482 36.3055097647685 58.00000000000001
  endloop
endfacet
facet normal 0.13052619222004846 -0.9914448613738109 0.0
  outer loop
    vertex 47.46533351320482 36.3055097647685 58.00000000000001
    vertex 47.01589779128189 36.246340429472355 56.0
    vertex 47.46533351320482 36.3055097647685 56.0
  endloop
endfacet
facet normal 0.13052619222004846 -0.9914448613738109 0.0
  outer loop
    vertex 47.01589779128189 36.246340429472355 56.0
    vertex 47.46533351320482 36.3055097647685 58.00000000000001
    vertex 47.01589779128189 36.246340429472355 58.00000000000001
  endloop
endfacet
facet normal 0.3826834323650959 -0.9238795325112843 0.0
  outer loop
    vertex 47.01589779128189 36.246340429472355 58.00000000000001
    vertex 46.59709037108036 36.072864716002385 56.0
    vertex 47.01589779128189 36.246340429472355 56.0
  endloop
endfacet
facet normal 0.3826834323650959 -0.9238795325112843 0.0
  outer loop
    vertex 46.59709037108036 36.072864716002385 56.0
    vertex 47.01589779128189 36.246340429472355 58.00000000000001
    vertex 46.59709037108036 36.072864716002385 58.00000000000001
  endloop
endfacet
facet normal 0.6087614290087219 -0.7933533402912343 0.0
  outer loop
    vertex 46.59709037108036 36.072864716002385 58.00000000000001
    vertex 46.23745228617498 35.796904707549416 56.0
    vertex 46.59709037108036 36.072864716002385 56.0
  endloop
endfacet
facet normal 0.6087614290087219 -0.7933533402912343 0.0
  outer loop
    vertex 46.23745228617498 35.796904707549416 56.0
    vertex 46.59709037108036 36.072864716002385 58.00000000000001
    vertex 46.23745228617498 35.796904707549416 58.00000000000001
  endloop
endfacet
facet normal 0.7933533402912343 -0.6087614290087219 0.0
  outer loop
    vertex 46.23745228617498 35.796904707549416 56.0
    vertex 45.961492277722016 35.43726662264404 58.00000000000001
    vertex 45.961492277722016 35.43726662264404 56.0
  endloop
endfacet
facet normal 0.7933533402912343 -0.6087614290087219 0.0
  outer loop
    vertex 45.961492277722016 35.43726662264404 58.00000000000001
    vertex 46.23745228617498 35.796904707549416 56.0
    vertex 46.23745228617498 35.796904707549416 58.00000000000001
  endloop
endfacet
facet normal 0.9238795325112861 -0.3826834323650914 0.0
  outer loop
    vertex 45.961492277722016 35.43726662264404 56.0
    vertex 45.78801656425205 35.01845920244251 58.00000000000001
    vertex 45.78801656425205 35.01845920244251 56.0
  endloop
endfacet
facet normal 0.9238795325112861 -0.3826834323650914 0.0
  outer loop
    vertex 45.78801656425205 35.01845920244251 58.00000000000001
    vertex 45.961492277722016 35.43726662264404 56.0
    vertex 45.961492277722016 35.43726662264404 58.00000000000001
  endloop
endfacet
facet normal 0.9914448613738107 -0.13052619222005007 0.0
  outer loop
    vertex 45.78801656425205 35.01845920244251 56.0
    vertex 45.7288472289559 34.56902348051958 58.00000000000001
    vertex 45.7288472289559 34.56902348051958 56.0
  endloop
endfacet
facet normal 0.9914448613738107 -0.13052619222005007 0.0
  outer loop
    vertex 45.7288472289559 34.56902348051958 58.00000000000001
    vertex 45.78801656425205 35.01845920244251 56.0
    vertex 45.78801656425205 35.01845920244251 58.00000000000001
  endloop
endfacet
facet normal 0.9914448613738109 0.13052619222004846 0.0
  outer loop
    vertex 45.7288472289559 34.56902348051958 56.0
    vertex 45.78801656425205 34.119587758596644 58.00000000000001
    vertex 45.78801656425205 34.119587758596644 56.0
  endloop
endfacet
facet normal 0.9914448613738109 0.13052619222004846 0.0
  outer loop
    vertex 45.78801656425205 34.119587758596644 58.00000000000001
    vertex 45.7288472289559 34.56902348051958 56.0
    vertex 45.7288472289559 34.56902348051958 58.00000000000001
  endloop
endfacet
facet normal 0.9238795325112843 0.3826834323650959 0.0
  outer loop
    vertex 45.78801656425205 34.119587758596644 56.0
    vertex 45.961492277722016 33.70078033839512 58.00000000000001
    vertex 45.961492277722016 33.70078033839512 56.0
  endloop
endfacet
facet normal 0.9238795325112843 0.3826834323650959 0.0
  outer loop
    vertex 45.961492277722016 33.70078033839512 58.00000000000001
    vertex 45.78801656425205 34.119587758596644 56.0
    vertex 45.78801656425205 34.119587758596644 58.00000000000001
  endloop
endfacet
facet normal 0.7933533402912343 0.6087614290087219 0.0
  outer loop
    vertex 45.961492277722016 33.70078033839512 56.0
    vertex 46.23745228617498 33.34114225348974 58.00000000000001
    vertex 46.23745228617498 33.34114225348974 56.0
  endloop
endfacet
facet normal 0.7933533402912343 0.6087614290087219 0.0
  outer loop
    vertex 46.23745228617498 33.34114225348974 58.00000000000001
    vertex 45.961492277722016 33.70078033839512 56.0
    vertex 45.961492277722016 33.70078033839512 58.00000000000001
  endloop
endfacet
facet normal 0.6087614290087219 0.7933533402912343 0.0
  outer loop
    vertex 46.23745228617498 33.34114225348974 58.00000000000001
    vertex 46.59709037108036 33.06518224503677 56.0
    vertex 46.23745228617498 33.34114225348974 56.0
  endloop
endfacet
facet normal 0.6087614290087219 0.7933533402912343 0.0
  outer loop
    vertex 46.59709037108036 33.06518224503677 56.0
    vertex 46.23745228617498 33.34114225348974 58.00000000000001
    vertex 46.59709037108036 33.06518224503677 58.00000000000001
  endloop
endfacet
facet normal 0.3826834323650959 0.9238795325112843 0.0
  outer loop
    vertex 46.59709037108036 33.06518224503677 58.00000000000001
    vertex 47.01589779128189 32.89170653156682 56.0
    vertex 46.59709037108036 33.06518224503677 56.0
  endloop
endfacet
facet normal 0.3826834323650959 0.9238795325112843 0.0
  outer loop
    vertex 47.01589779128189 32.89170653156682 56.0
    vertex 46.59709037108036 33.06518224503677 58.00000000000001
    vertex 47.01589779128189 32.89170653156682 58.00000000000001
  endloop
endfacet
facet normal 0.13052619222004846 0.9914448613738109 0.0
  outer loop
    vertex 47.01589779128189 32.89170653156682 58.00000000000001
    vertex 47.46533351320482 32.83253719627067 56.0
    vertex 47.01589779128189 32.89170653156682 56.0
  endloop
endfacet
facet normal 0.13052619222004846 0.9914448613738109 0.0
  outer loop
    vertex 47.46533351320482 32.83253719627067 56.0
    vertex 47.01589779128189 32.89170653156682 58.00000000000001
    vertex 47.46533351320482 32.83253719627067 58.00000000000001
  endloop
endfacet
facet normal -0.13052619222004846 0.9914448613738109 0.0
  outer loop
    vertex 47.46533351320482 32.83253719627067 58.00000000000001
    vertex 47.91476923512775 32.89170653156682 56.0
    vertex 47.46533351320482 32.83253719627067 56.0
  endloop
endfacet
facet normal -0.13052619222004846 0.9914448613738109 0.0
  outer loop
    vertex 47.91476923512775 32.89170653156682 56.0
    vertex 47.46533351320482 32.83253719627067 58.00000000000001
    vertex 47.91476923512775 32.89170653156682 58.00000000000001
  endloop
endfacet
facet normal -0.9914448613738077 0.1305261922200732 0.0
  outer loop
    vertex 110.4653335132048 3.5690234805195797 58.00000000000001
    vertex 110.39718516578293 3.051385390314539 55.999999999999986
    vertex 110.39718516578293 3.051385390314539 58.00000000000001
  endloop
endfacet
facet normal -0.9914448613738077 0.1305261922200732 0.0
  outer loop
    vertex 110.39718516578293 3.051385390314539 55.999999999999986
    vertex 110.4653335132048 3.5690234805195797 58.00000000000001
    vertex 110.4653335132048 3.5690234805195797 55.999999999999986
  endloop
endfacet
facet normal -0.9914448613738077 -0.13052619222007306 0.0
  outer loop
    vertex 110.39718516578293 4.086661570724621 58.00000000000001
    vertex 110.4653335132048 3.5690234805195797 55.999999999999986
    vertex 110.4653335132048 3.5690234805195797 58.00000000000001
  endloop
endfacet
facet normal -0.9914448613738077 -0.13052619222007306 0.0
  outer loop
    vertex 110.4653335132048 3.5690234805195797 55.999999999999986
    vertex 110.39718516578293 4.086661570724621 58.00000000000001
    vertex 110.39718516578293 4.086661570724621 55.999999999999986
  endloop
endfacet
facet normal -0.92387953251129 -0.3826834323650821 0.0
  outer loop
    vertex 110.19738432077368 4.569023480519579 58.00000000000001
    vertex 110.39718516578293 4.086661570724621 55.999999999999986
    vertex 110.39718516578293 4.086661570724621 58.00000000000001
  endloop
endfacet
facet normal -0.92387953251129 -0.3826834323650821 0.0
  outer loop
    vertex 110.39718516578293 4.086661570724621 55.999999999999986
    vertex 110.19738432077368 4.569023480519579 58.00000000000001
    vertex 110.19738432077368 4.569023480519579 55.999999999999986
  endloop
endfacet
facet normal -0.7933533402912477 -0.6087614290087043 0.0
  outer loop
    vertex 109.8795470755779 4.983237042892674 58.00000000000001
    vertex 110.19738432077368 4.569023480519579 55.999999999999986
    vertex 110.19738432077368 4.569023480519579 58.00000000000001
  endloop
endfacet
facet normal -0.7933533402912477 -0.6087614290087043 0.0
  outer loop
    vertex 110.19738432077368 4.569023480519579 55.999999999999986
    vertex 109.8795470755779 4.983237042892674 58.00000000000001
    vertex 109.8795470755779 4.983237042892674 55.999999999999986
  endloop
endfacet
facet normal -0.6087614290087128 -0.7933533402912413 0.0
  outer loop
    vertex 109.8795470755779 4.983237042892674 58.00000000000001
    vertex 109.46533351320481 5.301074288088454 55.999999999999986
    vertex 109.8795470755779 4.983237042892674 55.999999999999986
  endloop
endfacet
facet normal -0.6087614290087128 -0.7933533402912413 0.0
  outer loop
    vertex 109.46533351320481 5.301074288088454 55.999999999999986
    vertex 109.8795470755779 4.983237042892674 58.00000000000001
    vertex 109.46533351320481 5.301074288088454 58.00000000000001
  endloop
endfacet
facet normal -0.38268343236507524 -0.9238795325112927 0.0
  outer loop
    vertex 109.46533351320481 5.301074288088454 58.00000000000001
    vertex 108.98297160340984 5.500875133097711 55.999999999999986
    vertex 109.46533351320481 5.301074288088454 55.999999999999986
  endloop
endfacet
facet normal -0.38268343236507524 -0.9238795325112927 0.0
  outer loop
    vertex 108.98297160340984 5.500875133097711 55.999999999999986
    vertex 109.46533351320481 5.301074288088454 58.00000000000001
    vertex 108.98297160340984 5.500875133097711 58.00000000000001
  endloop
endfacet
facet normal -0.13052619222005635 -0.9914448613738098 0.0
  outer loop
    vertex 108.98297160340984 5.500875133097711 58.00000000000001
    vertex 108.46533351320481 5.569023480519575 55.999999999999986
    vertex 108.98297160340984 5.500875133097711 55.999999999999986
  endloop
endfacet
facet normal -0.13052619222005635 -0.9914448613738098 0.0
  outer loop
    vertex 108.46533351320481 5.569023480519575 55.999999999999986
    vertex 108.98297160340984 5.500875133097711 58.00000000000001
    vertex 108.46533351320481 5.569023480519575 58.00000000000001
  endloop
endfacet
facet normal 0.13052619222005046 -0.9914448613738105 0.0
  outer loop
    vertex 108.46533351320481 5.569023480519575 58.00000000000001
    vertex 107.94769542299974 5.500875133097709 55.999999999999986
    vertex 108.46533351320481 5.569023480519575 55.999999999999986
  endloop
endfacet
facet normal 0.13052619222005046 -0.9914448613738105 0.0
  outer loop
    vertex 107.94769542299974 5.500875133097709 55.999999999999986
    vertex 108.46533351320481 5.569023480519575 58.00000000000001
    vertex 107.94769542299974 5.500875133097709 58.00000000000001
  endloop
endfacet
facet normal 0.3826834323651103 -0.9238795325112782 0.0
  outer loop
    vertex 107.94769542299974 5.500875133097709 58.00000000000001
    vertex 107.46533351320481 5.301074288088448 55.999999999999986
    vertex 107.94769542299974 5.500875133097709 55.999999999999986
  endloop
endfacet
facet normal 0.3826834323651103 -0.9238795325112782 0.0
  outer loop
    vertex 107.46533351320481 5.301074288088448 55.999999999999986
    vertex 107.94769542299974 5.500875133097709 58.00000000000001
    vertex 107.46533351320481 5.301074288088448 58.00000000000001
  endloop
endfacet
facet normal 0.6087614290087161 -0.7933533402912387 0.0
  outer loop
    vertex 107.46533351320481 5.301074288088448 58.00000000000001
    vertex 107.0511199508317 4.983237042892665 55.999999999999986
    vertex 107.46533351320481 5.301074288088448 55.999999999999986
  endloop
endfacet
facet normal 0.6087614290087161 -0.7933533402912387 0.0
  outer loop
    vertex 107.0511199508317 4.983237042892665 55.999999999999986
    vertex 107.46533351320481 5.301074288088448 58.00000000000001
    vertex 107.0511199508317 4.983237042892665 58.00000000000001
  endloop
endfacet
facet normal 0.7933533402912081 -0.6087614290087562 0.0
  outer loop
    vertex 107.0511199508317 4.983237042892665 55.999999999999986
    vertex 106.7332827056359 4.569023480519568 58.00000000000001
    vertex 106.7332827056359 4.569023480519568 55.999999999999986
  endloop
endfacet
facet normal 0.7933533402912081 -0.6087614290087562 0.0
  outer loop
    vertex 106.7332827056359 4.569023480519568 58.00000000000001
    vertex 107.0511199508317 4.983237042892665 55.999999999999986
    vertex 107.0511199508317 4.983237042892665 58.00000000000001
  endloop
endfacet
facet normal 0.9238795325112901 -0.3826834323650817 0.0
  outer loop
    vertex 106.7332827056359 4.569023480519568 55.999999999999986
    vertex 106.53348186062664 4.086661570724609 58.00000000000001
    vertex 106.53348186062664 4.086661570724609 55.999999999999986
  endloop
endfacet
facet normal 0.9238795325112901 -0.3826834323650817 0.0
  outer loop
    vertex 106.53348186062664 4.086661570724609 58.00000000000001
    vertex 106.7332827056359 4.569023480519568 55.999999999999986
    vertex 106.7332827056359 4.569023480519568 58.00000000000001
  endloop
endfacet
facet normal 0.9914448613738188 -0.1305261922199881 0.0
  outer loop
    vertex 106.53348186062664 4.086661570724609 55.999999999999986
    vertex 106.46533351320481 3.5690234805195677 58.00000000000001
    vertex 106.46533351320481 3.5690234805195677 55.999999999999986
  endloop
endfacet
facet normal 0.9914448613738188 -0.1305261922199881 0.0
  outer loop
    vertex 106.46533351320481 3.5690234805195677 58.00000000000001
    vertex 106.53348186062664 4.086661570724609 55.999999999999986
    vertex 106.53348186062664 4.086661570724609 58.00000000000001
  endloop
endfacet
facet normal 0.9914448613738188 0.13052619221998793 0.0
  outer loop
    vertex 106.46533351320481 3.5690234805195677 55.999999999999986
    vertex 106.53348186062664 3.051385390314526 58.00000000000001
    vertex 106.53348186062664 3.051385390314526 55.999999999999986
  endloop
endfacet
facet normal 0.9914448613738188 0.13052619221998793 0.0
  outer loop
    vertex 106.53348186062664 3.051385390314526 58.00000000000001
    vertex 106.46533351320481 3.5690234805195677 55.999999999999986
    vertex 106.46533351320481 3.5690234805195677 58.00000000000001
  endloop
endfacet
facet normal 0.923879532511259 0.38268343236515684 0.0
  outer loop
    vertex 106.53348186062664 3.051385390314526 55.999999999999986
    vertex 106.73328270563594 2.569023480519569 58.00000000000001
    vertex 106.73328270563594 2.569023480519569 55.999999999999986
  endloop
endfacet
facet normal 0.923879532511259 0.38268343236515684 0.0
  outer loop
    vertex 106.73328270563594 2.569023480519569 58.00000000000001
    vertex 106.53348186062664 3.051385390314526 55.999999999999986
    vertex 106.53348186062664 3.051385390314526 58.00000000000001
  endloop
endfacet
facet normal 0.7933533402912467 0.6087614290087056 0.0
  outer loop
    vertex 106.73328270563594 2.569023480519569 55.999999999999986
    vertex 107.0511199508317 2.1548099181464755 58.00000000000001
    vertex 107.0511199508317 2.1548099181464755 55.999999999999986
  endloop
endfacet
facet normal 0.7933533402912467 0.6087614290087056 0.0
  outer loop
    vertex 107.0511199508317 2.1548099181464755 58.00000000000001
    vertex 106.73328270563594 2.569023480519569 55.999999999999986
    vertex 106.73328270563594 2.569023480519569 58.00000000000001
  endloop
endfacet
facet normal 0.6087614290087152 0.7933533402912393 0.0
  outer loop
    vertex 107.0511199508317 2.1548099181464755 58.00000000000001
    vertex 107.46533351320481 1.8369726729506937 55.999999999999986
    vertex 107.0511199508317 2.1548099181464755 55.999999999999986
  endloop
endfacet
facet normal 0.6087614290087152 0.7933533402912393 0.0
  outer loop
    vertex 107.46533351320481 1.8369726729506937 55.999999999999986
    vertex 107.0511199508317 2.1548099181464755 58.00000000000001
    vertex 107.46533351320481 1.8369726729506937 58.00000000000001
  endloop
endfacet
facet normal 0.38268343236510577 0.9238795325112801 0.0
  outer loop
    vertex 107.46533351320481 1.8369726729506937 58.00000000000001
    vertex 107.94769542299974 1.6371718279414365 55.999999999999986
    vertex 107.46533351320481 1.8369726729506937 55.999999999999986
  endloop
endfacet
facet normal 0.38268343236510577 0.9238795325112801 0.0
  outer loop
    vertex 107.94769542299974 1.6371718279414365 55.999999999999986
    vertex 107.46533351320481 1.8369726729506937 58.00000000000001
    vertex 107.94769542299974 1.6371718279414365 58.00000000000001
  endloop
endfacet
facet normal 0.1305261922200425 0.9914448613738116 0.0
  outer loop
    vertex 107.94769542299974 1.6371718279414365 58.00000000000001
    vertex 108.46533351320481 1.5690234805195742 55.999999999999986
    vertex 107.94769542299974 1.6371718279414365 55.999999999999986
  endloop
endfacet
facet normal 0.1305261922200425 0.9914448613738116 0.0
  outer loop
    vertex 108.46533351320481 1.5690234805195742 55.999999999999986
    vertex 107.94769542299974 1.6371718279414365 58.00000000000001
    vertex 108.46533351320481 1.5690234805195742 58.00000000000001
  endloop
endfacet
facet normal -0.13052619222005898 0.9914448613738094 0.0
  outer loop
    vertex 108.46533351320481 1.5690234805195742 58.00000000000001
    vertex 108.98297160340984 1.6371718279414391 55.999999999999986
    vertex 108.46533351320481 1.5690234805195742 55.999999999999986
  endloop
endfacet
facet normal -0.13052619222005898 0.9914448613738094 0.0
  outer loop
    vertex 108.98297160340984 1.6371718279414391 55.999999999999986
    vertex 108.46533351320481 1.5690234805195742 58.00000000000001
    vertex 108.98297160340984 1.6371718279414391 58.00000000000001
  endloop
endfacet
facet normal -0.3826834323650822 0.92387953251129 0.0
  outer loop
    vertex 108.98297160340984 1.6371718279414391 58.00000000000001
    vertex 109.46533351320481 1.8369726729507008 55.999999999999986
    vertex 108.98297160340984 1.6371718279414391 55.999999999999986
  endloop
endfacet
facet normal -0.3826834323650822 0.92387953251129 0.0
  outer loop
    vertex 109.46533351320481 1.8369726729507008 55.999999999999986
    vertex 108.98297160340984 1.6371718279414391 58.00000000000001
    vertex 109.46533351320481 1.8369726729507008 58.00000000000001
  endloop
endfacet
facet normal -0.6087614290087161 0.7933533402912387 0.0
  outer loop
    vertex 109.46533351320481 1.8369726729507008 58.00000000000001
    vertex 109.8795470755779 2.1548099181464835 55.999999999999986
    vertex 109.46533351320481 1.8369726729507008 55.999999999999986
  endloop
endfacet
facet normal -0.6087614290087161 0.7933533402912387 0.0
  outer loop
    vertex 109.8795470755779 2.1548099181464835 55.999999999999986
    vertex 109.46533351320481 1.8369726729507008 58.00000000000001
    vertex 109.8795470755779 2.1548099181464835 58.00000000000001
  endloop
endfacet
facet normal -0.7933533402912487 0.608761429008703 0.0
  outer loop
    vertex 110.19738432077368 2.5690234805195793 58.00000000000001
    vertex 109.8795470755779 2.1548099181464835 55.999999999999986
    vertex 109.8795470755779 2.1548099181464835 58.00000000000001
  endloop
endfacet
facet normal -0.7933533402912487 0.608761429008703 0.0
  outer loop
    vertex 109.8795470755779 2.1548099181464835 55.999999999999986
    vertex 110.19738432077368 2.5690234805195793 58.00000000000001
    vertex 110.19738432077368 2.5690234805195793 55.999999999999986
  endloop
endfacet
facet normal -0.9238795325112903 0.3826834323650811 0.0
  outer loop
    vertex 110.39718516578293 3.051385390314539 58.00000000000001
    vertex 110.19738432077368 2.5690234805195793 55.999999999999986
    vertex 110.19738432077368 2.5690234805195793 58.00000000000001
  endloop
endfacet
facet normal -0.9238795325112903 0.3826834323650811 0.0
  outer loop
    vertex 110.19738432077368 2.5690234805195793 55.999999999999986
    vertex 110.39718516578293 3.051385390314539 58.00000000000001
    vertex 110.39718516578293 3.051385390314539 55.999999999999986
  endloop
endfacet
facet normal 0.0 0.0 -1.0
  outer loop
    vertex 113.96533351320483 42.06902348051958 54.000000000000014
    vertex 41.96533351320482 40.06902348051958 53.99999999999999
    vertex 41.96533351320482 42.06902348051958 53.99999999999999
  endloop
endfacet
facet normal 0.0 0.0 -1.0
  outer loop
    vertex 41.96533351320482 40.06902348051958 53.99999999999999
    vertex 113.96533351320483 42.06902348051958 54.000000000000014
    vertex 113.96533351320483 40.069023480519576 54.000000000000014
  endloop
endfacet
facet normal -1.566648045859943e-16 -1.0 2.043276427914259e-31
  outer loop
    vertex 113.96533351320483 40.069023480519576 54.000000000000014
    vertex 41.96533351320482 40.06902348051958 55.999999999999986
    vertex 41.96533351320482 40.06902348051958 53.99999999999999
  endloop
endfacet
facet normal -1.566648045859943e-16 -1.0 2.043276427914259e-31
  outer loop
    vertex 41.96533351320482 40.06902348051958 55.999999999999986
    vertex 113.96533351320483 40.069023480519576 54.000000000000014
    vertex 113.96533351320483 40.069023480519576 56.00000000000001
  endloop
endfacet
facet normal 0.0 -1.0 0.0
  outer loop
    vertex 113.96533351320483 -1.9309765194804172 56.00000000000001
    vertex 41.96533351320482 -1.9309765194804172 58.00000000000001
    vertex 41.96533351320482 -1.9309765194804172 56.0
  endloop
endfacet
facet normal 0.0 -1.0 0.0
  outer loop
    vertex 41.96533351320482 -1.9309765194804172 58.00000000000001
    vertex 113.96533351320483 -1.9309765194804172 56.00000000000001
    vertex 113.96533351320483 -1.9309765194804172 58.00000000000003
  endloop
endfacet
facet normal -1.0 0.0 0.0
  outer loop
    vertex 41.96533351320482 42.06902348051958 58.00000000000001
    vertex 41.96533351320482 -1.9309765194804172 56.0
    vertex 41.96533351320482 -1.9309765194804172 58.00000000000001
  endloop
endfacet
facet normal -1.0 0.0 0.0
  outer loop
    vertex 41.96533351320482 -1.9309765194804172 56.0
    vertex 41.96533351320482 42.06902348051958 58.00000000000001
    vertex 41.96533351320482 40.06902348051958 55.999999999999986
  endloop
endfacet
facet normal -1.0 0.0 0.0
  outer loop
    vertex 41.96533351320482 40.06902348051958 55.999999999999986
    vertex 41.96533351320482 42.06902348051958 58.00000000000001
    vertex 41.96533351320482 40.06902348051958 53.99999999999999
  endloop
endfacet
facet normal -1.0 0.0 0.0
  outer loop
    vertex 41.96533351320482 40.06902348051958 53.99999999999999
    vertex 41.96533351320482 42.06902348051958 58.00000000000001
    vertex 41.96533351320482 42.06902348051958 53.99999999999999
  endloop
endfacet
facet normal 2.3499720687899147e-16 -1.3428411821656654e-16 -1.0
  outer loop
    vertex 41.96533351320482 40.06902348051958 55.999999999999986
    vertex 45.7288472289559 34.56902348051958 56.0
    vertex 41.96533351320482 -1.9309765194804172 56.0
  endloop
endfacet
facet normal 2.3499720687899147e-16 -1.3428411821656654e-16 -1.0
  outer loop
    vertex 45.7288472289559 34.56902348051958 56.0
    vertex 41.96533351320482 40.06902348051958 55.999999999999986
    vertex 45.78801656425205 35.01845920244251 56.0
  endloop
endfacet
facet normal 2.3499720687899147e-16 -1.3428411821656654e-16 -1.0
  outer loop
    vertex 45.78801656425205 35.01845920244251 56.0
    vertex 41.96533351320482 40.06902348051958 55.999999999999986
    vertex 45.961492277722016 35.43726662264404 56.0
  endloop
endfacet
facet normal 2.3499720687899147e-16 -1.3428411821656654e-16 -1.0
  outer loop
    vertex 45.961492277722016 35.43726662264404 56.0
    vertex 41.96533351320482 40.06902348051958 55.999999999999986
    vertex 46.23745228617498 35.796904707549416 56.0
  endloop
endfacet
facet normal 2.3499720687899147e-16 -1.3428411821656654e-16 -1.0
  outer loop
    vertex 46.23745228617498 35.796904707549416 56.0
    vertex 41.96533351320482 40.06902348051958 55.999999999999986
    vertex 46.59709037108036 36.072864716002385 56.0
  endloop
endfacet
facet normal 2.3499720687899147e-16 -1.3428411821656654e-16 -1.0
  outer loop
    vertex 46.59709037108036 36.072864716002385 56.0
    vertex 41.96533351320482 40.06902348051958 55.999999999999986
    vertex 47.01589779128189 36.246340429472355 56.0
  endloop
endfacet
facet normal 2.3499720687899147e-16 -1.3428411821656654e-16 -1.0
  outer loop
    vertex 47.01589779128189 36.246340429472355 56.0
    vertex 41.96533351320482 40.06902348051958 55.999999999999986
    vertex 47.46533351320482 36.3055097647685 56.0
  endloop
endfacet
facet normal 2.3499720687899147e-16 -1.3428411821656654e-16 -1.0
  outer loop
    vertex 47.46533351320482 36.3055097647685 56.0
    vertex 41.96533351320482 40.06902348051958 55.999999999999986
    vertex 113.96533351320483 40.069023480519576 56.00000000000001
  endloop
endfacet
facet normal 2.3499720687899147e-16 -1.3428411821656654e-16 -1.0
  outer loop
    vertex 47.46533351320482 36.3055097647685 56.0
    vertex 113.96533351320483 40.069023480519576 56.00000000000001
    vertex 47.91476923512774 36.246340429472355 56.0
  endloop
endfacet
facet normal 2.3499720687899147e-16 -1.3428411821656654e-16 -1.0
  outer loop
    vertex 47.91476923512774 36.246340429472355 56.0
    vertex 113.96533351320483 40.069023480519576 56.00000000000001
    vertex 48.333576655329274 36.072864716002385 56.0
  endloop
endfacet
facet normal 2.3499720687899147e-16 -1.3428411821656654e-16 -1.0
  outer loop
    vertex 48.333576655329274 36.072864716002385 56.0
    vertex 113.96533351320483 40.069023480519576 56.00000000000001
    vertex 48.69321474023466 35.796904707549416 56.0
  endloop
endfacet
facet normal 2.3499720687899147e-16 -1.3428411821656654e-16 -1.0
  outer loop
    vertex 48.69321474023466 35.796904707549416 56.0
    vertex 113.96533351320483 40.069023480519576 56.00000000000001
    vertex 48.96917474868762 35.43726662264404 56.0
  endloop
endfacet
facet normal 2.3499720687899147e-16 -1.3428411821656654e-16 -1.0
  outer loop
    vertex 48.96917474868762 35.43726662264404 56.0
    vertex 113.96533351320483 40.069023480519576 56.00000000000001
    vertex 49.14265046215758 35.01845920244251 56.0
  endloop
endfacet
facet normal 2.3499720687899147e-16 -1.3428411821656654e-16 -1.0
  outer loop
    vertex 49.14265046215758 35.01845920244251 56.0
    vertex 113.96533351320483 40.069023480519576 56.00000000000001
    vertex 49.20181979745373 34.56902348051958 56.0
  endloop
endfacet
facet normal 2.3499720687899147e-16 -1.3428411821656654e-16 -1.0
  outer loop
    vertex 49.20181979745373 34.56902348051958 56.0
    vertex 113.96533351320483 40.069023480519576 56.00000000000001
    vertex 59.19080332095042 23.717145070982234 56.0
  endloop
endfacet
facet normal 2.3499720687899147e-16 -1.3428411821656654e-16 -1.0
  outer loop
    vertex 49.20181979745373 34.56902348051958 56.0
    vertex 59.19080332095042 23.717145070982234 56.0
    vertex 57.79794607773785 23.000703023627846 56.0
  endloop
endfacet
facet normal 2.3499720687899147e-16 -1.3428411821656654e-16 -1.0
  outer loop
    vertex 49.20181979745373 34.56902348051958 56.0
    vertex 57.79794607773785 23.000703023627846 56.0
    vertex 56.63797814075259 21.94817516539641 56.0
  endloop
endfacet
facet normal 2.3499720687899147e-16 -1.3428411821656654e-16 -1.0
  outer loop
    vertex 49.20181979745373 34.56902348051958 56.0
    vertex 56.63797814075259 21.94817516539641 56.0
    vertex 55.78994940796253 20.631289530441887 56.0
  endloop
endfacet
facet normal 2.3499720687899147e-16 -1.3428411821656654e-16 -1.0
  outer loop
    vertex 49.20181979745373 34.56902348051958 56.0
    vertex 55.78994940796253 20.631289530441887 56.0
    vertex 55.31165163607359 19.13978969853001 56.0
  endloop
endfacet
facet normal 2.3499720687899147e-16 -1.3428411821656654e-16 -1.0
  outer loop
    vertex 49.20181979745373 34.56902348051958 56.0
    vertex 55.31165163607359 19.13978969853001 56.0
    vertex 55.23568002781554 17.575318918385562 56.0
  endloop
endfacet
facet normal 2.3499720687899147e-16 -1.3428411821656654e-16 -1.0
  outer loop
    vertex 55.23568002781554 17.575318918385562 56.0
    vertex 55.31165163607359 19.13978969853001 56.0
    vertex 55.25965460763236 18.069023480519583 56.0
  endloop
endfacet
facet normal 2.3499720687899147e-16 -1.3428411821656654e-16 -1.0
  outer loop
    vertex 59.19080332095042 23.717145070982234 56.0
    vertex 113.96533351320483 40.069023480519576 56.00000000000001
    vertex 60.72162895107079 24.048676965908854 56.0
  endloop
endfacet
facet normal 2.3499720687899147e-16 -1.3428411821656654e-16 -1.0
  outer loop
    vertex 60.72162895107079 24.048676965908854 56.0
    vertex 113.96533351320483 40.069023480519576 56.00000000000001
    vertex 61.21533351320482 24.024702386092034 56.0
  endloop
endfacet
facet normal 2.3499720687899147e-16 -1.3428411821656654e-16 -1.0
  outer loop
    vertex 61.21533351320482 24.024702386092034 56.0
    vertex 113.96533351320483 40.069023480519576 56.00000000000001
    vertex 62.286099731215245 23.97270535765081 56.0
  endloop
endfacet
facet normal 2.3499720687899147e-16 -1.3428411821656654e-16 -1.0
  outer loop
    vertex 62.286099731215245 23.97270535765081 56.0
    vertex 113.96533351320483 40.069023480519576 56.00000000000001
    vertex 63.77759956312712 23.494407585761863 56.0
  endloop
endfacet
facet normal 2.3499720687899147e-16 -1.3428411821656654e-16 -1.0
  outer loop
    vertex 63.77759956312712 23.494407585761863 56.0
    vertex 113.96533351320483 40.069023480519576 56.00000000000001
    vertex 65.09448519808164 22.646378852971818 56.0
  endloop
endfacet
facet normal 2.3499720687899147e-16 -1.3428411821656654e-16 -1.0
  outer loop
    vertex 65.09448519808164 22.646378852971818 56.0
    vertex 113.96533351320483 40.069023480519576 56.00000000000001
    vertex 66.14701305631307 21.486410915986557 56.0
  endloop
endfacet
facet normal 2.3499720687899147e-16 -1.3428411821656654e-16 -1.0
  outer loop
    vertex 66.14701305631307 21.486410915986557 56.0
    vertex 113.96533351320483 40.069023480519576 56.00000000000001
    vertex 66.86345510366748 20.093553672773982 56.0
  endloop
endfacet
facet normal 2.3499720687899147e-16 -1.3428411821656654e-16 -1.0
  outer loop
    vertex 66.86345510366748 20.093553672773982 56.0
    vertex 113.96533351320483 40.069023480519576 56.00000000000001
    vertex 80.21533351320483 24.81902348051958 56.0
  endloop
endfacet
facet normal 2.3499720687899147e-16 -1.3428411821656654e-16 -1.0
  outer loop
    vertex 66.86345510366748 20.093553672773982 56.0
    vertex 80.21533351320483 24.81902348051958 56.0
    vertex 67.19498699859409 18.562728042653603 56.0
  endloop
endfacet
facet normal 2.3499720687899147e-16 -1.3428411821656654e-16 -1.0
  outer loop
    vertex 80.21533351320483 24.81902348051958 56.0
    vertex 113.96533351320483 40.069023480519576 56.00000000000001
    vertex 89.21533351320483 24.81902348051958 56.0
  endloop
endfacet
facet normal 2.3499720687899147e-16 -1.3428411821656654e-16 -1.0
  outer loop
    vertex 89.21533351320483 24.81902348051958 56.0
    vertex 113.96533351320483 40.069023480519576 56.00000000000001
    vertex 89.21533351320483 11.319023480519581 56.0
  endloop
endfacet
facet normal 2.3499720687899147e-16 -1.3428411821656654e-16 -1.0
  outer loop
    vertex 89.21533351320483 11.319023480519581 56.0
    vertex 113.96533351320483 40.069023480519576 56.00000000000001
    vertex 106.53348186062664 4.086661570724609 55.999999999999986
  endloop
endfacet
facet normal 2.3499720687899147e-16 -1.3428411821656654e-16 -1.0
  outer loop
    vertex 89.21533351320483 11.319023480519581 56.0
    vertex 106.53348186062664 4.086661570724609 55.999999999999986
    vertex 106.46533351320481 3.5690234805195677 55.999999999999986
  endloop
endfacet
facet normal 2.3499720687899147e-16 -1.3428411821656654e-16 -1.0
  outer loop
    vertex 106.53348186062664 4.086661570724609 55.999999999999986
    vertex 113.96533351320483 40.069023480519576 56.00000000000001
    vertex 106.7332827056359 4.569023480519568 55.999999999999986
  endloop
endfacet
facet normal 2.3499720687899147e-16 -1.3428411821656654e-16 -1.0
  outer loop
    vertex 106.7332827056359 4.569023480519568 55.999999999999986
    vertex 113.96533351320483 40.069023480519576 56.00000000000001
    vertex 107.0511199508317 4.983237042892665 55.999999999999986
  endloop
endfacet
facet normal 2.3499720687899147e-16 -1.3428411821656654e-16 -1.0
  outer loop
    vertex 107.0511199508317 4.983237042892665 55.999999999999986
    vertex 113.96533351320483 40.069023480519576 56.00000000000001
    vertex 107.46533351320481 5.301074288088448 55.999999999999986
  endloop
endfacet
facet normal 2.3499720687899147e-16 -1.3428411821656654e-16 -1.0
  outer loop
    vertex 107.46533351320481 5.301074288088448 55.999999999999986
    vertex 113.96533351320483 40.069023480519576 56.00000000000001
    vertex 107.94769542299974 5.500875133097709 55.999999999999986
  endloop
endfacet
facet normal 2.3499720687899147e-16 -1.3428411821656654e-16 -1.0
  outer loop
    vertex 107.94769542299974 5.500875133097709 55.999999999999986
    vertex 113.96533351320483 40.069023480519576 56.00000000000001
    vertex 108.46533351320481 5.569023480519575 55.999999999999986
  endloop
endfacet
facet normal 2.3499720687899147e-16 -1.3428411821656654e-16 -1.0
  outer loop
    vertex 108.46533351320481 5.569023480519575 55.999999999999986
    vertex 113.96533351320483 40.069023480519576 56.00000000000001
    vertex 108.98297160340984 5.500875133097711 55.999999999999986
  endloop
endfacet
facet normal 2.3499720687899147e-16 -1.3428411821656654e-16 -1.0
  outer loop
    vertex 108.98297160340984 5.500875133097711 55.999999999999986
    vertex 113.96533351320483 40.069023480519576 56.00000000000001
    vertex 109.46533351320481 5.301074288088454 55.999999999999986
  endloop
endfacet
facet normal 2.3499720687899147e-16 -1.3428411821656654e-16 -1.0
  outer loop
    vertex 109.46533351320481 5.301074288088454 55.999999999999986
    vertex 113.96533351320483 40.069023480519576 56.00000000000001
    vertex 109.8795470755779 4.983237042892674 55.999999999999986
  endloop
endfacet
facet normal 2.3499720687899147e-16 -1.3428411821656654e-16 -1.0
  outer loop
    vertex 109.8795470755779 4.983237042892674 55.999999999999986
    vertex 113.96533351320483 40.069023480519576 56.00000000000001
    vertex 110.19738432077368 4.569023480519579 55.999999999999986
  endloop
endfacet
facet normal 2.3499720687899147e-16 -1.3428411821656654e-16 -1.0
  outer loop
    vertex 110.19738432077368 4.569023480519579 55.999999999999986
    vertex 113.96533351320483 40.069023480519576 56.00000000000001
    vertex 110.39718516578293 4.086661570724621 55.999999999999986
  endloop
endfacet
facet normal 2.3499720687899147e-16 -1.3428411821656654e-16 -1.0
  outer loop
    vertex 110.39718516578293 4.086661570724621 55.999999999999986
    vertex 113.96533351320483 40.069023480519576 56.00000000000001
    vertex 110.4653335132048 3.5690234805195797 55.999999999999986
  endloop
endfacet
facet normal 2.3499720687899147e-16 -1.3428411821656654e-16 -1.0
  outer loop
    vertex 41.96533351320482 -1.9309765194804172 56.0
    vertex 60.14456729519439 12.165341603388354 56.0
    vertex 113.96533351320483 -1.9309765194804172 56.00000000000001
  endloop
endfacet
facet normal 2.3499720687899147e-16 -1.3428411821656654e-16 -1.0
  outer loop
    vertex 60.14456729519439 12.165341603388354 56.0
    vertex 41.96533351320482 -1.9309765194804172 56.0
    vertex 58.65306746328251 12.643639375277301 56.0
  endloop
endfacet
facet normal 2.3499720687899147e-16 -1.3428411821656654e-16 -1.0
  outer loop
    vertex 58.65306746328251 12.643639375277301 56.0
    vertex 41.96533351320482 -1.9309765194804172 56.0
    vertex 57.33618182832799 13.491668108067351 56.0
  endloop
endfacet
facet normal 2.3499720687899147e-16 -1.3428411821656654e-16 -1.0
  outer loop
    vertex 57.33618182832799 13.491668108067351 56.0
    vertex 41.96533351320482 -1.9309765194804172 56.0
    vertex 56.28365397009655 14.651636045052612 56.0
  endloop
endfacet
facet normal 2.3499720687899147e-16 -1.3428411821656654e-16 -1.0
  outer loop
    vertex 56.28365397009655 14.651636045052612 56.0
    vertex 41.96533351320482 -1.9309765194804172 56.0
    vertex 45.961492277722016 33.70078033839512 56.0
  endloop
endfacet
facet normal 2.3499720687899147e-16 -1.3428411821656654e-16 -1.0
  outer loop
    vertex 45.961492277722016 33.70078033839512 56.0
    vertex 41.96533351320482 -1.9309765194804172 56.0
    vertex 45.78801656425205 34.119587758596644 56.0
  endloop
endfacet
facet normal 2.3499720687899147e-16 -1.3428411821656654e-16 -1.0
  outer loop
    vertex 45.78801656425205 34.119587758596644 56.0
    vertex 41.96533351320482 -1.9309765194804172 56.0
    vertex 45.7288472289559 34.56902348051958 56.0
  endloop
endfacet
facet normal 2.3499720687899147e-16 -1.3428411821656654e-16 -1.0
  outer loop
    vertex 56.28365397009655 14.651636045052612 56.0
    vertex 45.961492277722016 33.70078033839512 56.0
    vertex 46.23745228617498 33.34114225348974 56.0
  endloop
endfacet
facet normal 2.3499720687899147e-16 -1.3428411821656654e-16 -1.0
  outer loop
    vertex 56.28365397009655 14.651636045052612 56.0
    vertex 46.23745228617498 33.34114225348974 56.0
    vertex 46.59709037108036 33.06518224503677 56.0
  endloop
endfacet
facet normal 2.3499720687899147e-16 -1.3428411821656654e-16 -1.0
  outer loop
    vertex 56.28365397009655 14.651636045052612 56.0
    vertex 46.59709037108036 33.06518224503677 56.0
    vertex 55.56721192274216 16.044493288265183 56.0
  endloop
endfacet
facet normal 2.3499720687899147e-16 -1.3428411821656654e-16 -1.0
  outer loop
    vertex 55.56721192274216 16.044493288265183 56.0
    vertex 46.59709037108036 33.06518224503677 56.0
    vertex 47.01589779128189 32.89170653156682 56.0
  endloop
endfacet
facet normal 2.3499720687899147e-16 -1.3428411821656654e-16 -1.0
  outer loop
    vertex 55.56721192274216 16.044493288265183 56.0
    vertex 47.01589779128189 32.89170653156682 56.0
    vertex 47.46533351320482 32.83253719627067 56.0
  endloop
endfacet
facet normal 2.3499720687899147e-16 -1.3428411821656654e-16 -1.0
  outer loop
    vertex 55.56721192274216 16.044493288265183 56.0
    vertex 47.46533351320482 32.83253719627067 56.0
    vertex 47.91476923512775 32.89170653156682 56.0
  endloop
endfacet
facet normal 2.3499720687899147e-16 -1.3428411821656654e-16 -1.0
  outer loop
    vertex 55.56721192274216 16.044493288265183 56.0
    vertex 47.91476923512775 32.89170653156682 56.0
    vertex 48.333576655329274 33.06518224503677 56.0
  endloop
endfacet
facet normal 2.3499720687899147e-16 -1.3428411821656654e-16 -1.0
  outer loop
    vertex 55.56721192274216 16.044493288265183 56.0
    vertex 48.333576655329274 33.06518224503677 56.0
    vertex 48.69321474023466 33.34114225348974 56.0
  endloop
endfacet
facet normal 2.3499720687899147e-16 -1.3428411821656654e-16 -1.0
  outer loop
    vertex 55.56721192274216 16.044493288265183 56.0
    vertex 48.69321474023466 33.34114225348974 56.0
    vertex 48.96917474868762 33.70078033839512 56.0
  endloop
endfacet
facet normal 2.3499720687899147e-16 -1.3428411821656654e-16 -1.0
  outer loop
    vertex 55.56721192274216 16.044493288265183 56.0
    vertex 48.96917474868762 33.70078033839512 56.0
    vertex 49.14265046215758 34.119587758596644 56.0
  endloop
endfacet
facet normal 2.3499720687899147e-16 -1.3428411821656654e-16 -1.0
  outer loop
    vertex 55.56721192274216 16.044493288265183 56.0
    vertex 49.14265046215758 34.119587758596644 56.0
    vertex 49.20181979745373 34.56902348051958 56.0
  endloop
endfacet
facet normal 2.3499720687899147e-16 -1.3428411821656654e-16 -1.0
  outer loop
    vertex 55.56721192274216 16.044493288265183 56.0
    vertex 49.20181979745373 34.56902348051958 56.0
    vertex 55.23568002781554 17.575318918385562 56.0
  endloop
endfacet
facet normal 2.3499720687899147e-16 -1.3428411821656654e-16 -1.0
  outer loop
    vertex 113.96533351320483 -1.9309765194804172 56.00000000000001
    vertex 60.14456729519439 12.165341603388354 56.0
    vertex 61.21533351320482 12.11334457494713 56.0
  endloop
endfacet
facet normal 2.3499720687899147e-16 -1.3428411821656654e-16 -1.0
  outer loop
    vertex 113.96533351320483 -1.9309765194804172 56.00000000000001
    vertex 61.21533351320482 12.11334457494713 56.0
    vertex 61.70903807533884 12.089369995130307 56.0
  endloop
endfacet
facet normal 2.3499720687899147e-16 -1.3428411821656654e-16 -1.0
  outer loop
    vertex 113.96533351320483 -1.9309765194804172 56.00000000000001
    vertex 61.70903807533884 12.089369995130307 56.0
    vertex 63.23986370545921 12.420901890056925 56.0
  endloop
endfacet
facet normal 2.3499720687899147e-16 -1.3428411821656654e-16 -1.0
  outer loop
    vertex 113.96533351320483 -1.9309765194804172 56.00000000000001
    vertex 63.23986370545921 12.420901890056925 56.0
    vertex 64.63272094867179 13.13734393741132 56.0
  endloop
endfacet
facet normal 2.3499720687899147e-16 -1.3428411821656654e-16 -1.0
  outer loop
    vertex 113.96533351320483 -1.9309765194804172 56.00000000000001
    vertex 64.63272094867179 13.13734393741132 56.0
    vertex 65.79268888565704 14.189871795642754 56.0
  endloop
endfacet
facet normal 2.3499720687899147e-16 -1.3428411821656654e-16 -1.0
  outer loop
    vertex 113.96533351320483 -1.9309765194804172 56.00000000000001
    vertex 65.79268888565704 14.189871795642754 56.0
    vertex 66.6407176184471 15.506757430597279 56.0
  endloop
endfacet
facet normal 2.3499720687899147e-16 -1.3428411821656654e-16 -1.0
  outer loop
    vertex 113.96533351320483 -1.9309765194804172 56.00000000000001
    vertex 66.6407176184471 15.506757430597279 56.0
    vertex 80.21533351320483 11.319023480519581 56.0
  endloop
endfacet
facet normal 2.3499720687899147e-16 -1.3428411821656654e-16 -1.0
  outer loop
    vertex 80.21533351320483 11.319023480519581 56.0
    vertex 66.6407176184471 15.506757430597279 56.0
    vertex 67.11901539033605 16.99825726250916 56.0
  endloop
endfacet
facet normal 2.3499720687899147e-16 -1.3428411821656654e-16 -1.0
  outer loop
    vertex 80.21533351320483 11.319023480519581 56.0
    vertex 67.11901539033605 16.99825726250916 56.0
    vertex 67.17101241877727 18.069023480519583 56.0
  endloop
endfacet
facet normal 2.3499720687899147e-16 -1.3428411821656654e-16 -1.0
  outer loop
    vertex 80.21533351320483 11.319023480519581 56.0
    vertex 67.17101241877727 18.069023480519583 56.0
    vertex 67.19498699859409 18.562728042653603 56.0
  endloop
endfacet
facet normal 2.3499720687899147e-16 -1.3428411821656654e-16 -1.0
  outer loop
    vertex 80.21533351320483 11.319023480519581 56.0
    vertex 67.19498699859409 18.562728042653603 56.0
    vertex 80.21533351320483 24.81902348051958 56.0
  endloop
endfacet
facet normal 2.3499720687899147e-16 -1.3428411821656654e-16 -1.0
  outer loop
    vertex 113.96533351320483 -1.9309765194804172 56.00000000000001
    vertex 80.21533351320483 11.319023480519581 56.0
    vertex 89.21533351320483 11.319023480519581 56.0
  endloop
endfacet
facet normal 2.3499720687899147e-16 -1.3428411821656654e-16 -1.0
  outer loop
    vertex 113.96533351320483 -1.9309765194804172 56.00000000000001
    vertex 89.21533351320483 11.319023480519581 56.0
    vertex 107.46533351320481 1.8369726729506937 55.999999999999986
  endloop
endfacet
facet normal 2.3499720687899147e-16 -1.3428411821656654e-16 -1.0
  outer loop
    vertex 107.46533351320481 1.8369726729506937 55.999999999999986
    vertex 89.21533351320483 11.319023480519581 56.0
    vertex 107.0511199508317 2.1548099181464755 55.999999999999986
  endloop
endfacet
facet normal 2.3499720687899147e-16 -1.3428411821656654e-16 -1.0
  outer loop
    vertex 107.0511199508317 2.1548099181464755 55.999999999999986
    vertex 89.21533351320483 11.319023480519581 56.0
    vertex 106.73328270563594 2.569023480519569 55.999999999999986
  endloop
endfacet
facet normal 2.3499720687899147e-16 -1.3428411821656654e-16 -1.0
  outer loop
    vertex 106.73328270563594 2.569023480519569 55.999999999999986
    vertex 89.21533351320483 11.319023480519581 56.0
    vertex 106.53348186062664 3.051385390314526 55.999999999999986
  endloop
endfacet
facet normal 2.3499720687899147e-16 -1.3428411821656654e-16 -1.0
  outer loop
    vertex 106.53348186062664 3.051385390314526 55.999999999999986
    vertex 89.21533351320483 11.319023480519581 56.0
    vertex 106.46533351320481 3.5690234805195677 55.999999999999986
  endloop
endfacet
facet normal 2.3499720687899147e-16 -1.3428411821656654e-16 -1.0
  outer loop
    vertex 113.96533351320483 -1.9309765194804172 56.00000000000001
    vertex 107.46533351320481 1.8369726729506937 55.999999999999986
    vertex 107.94769542299974 1.6371718279414365 55.999999999999986
  endloop
endfacet
facet normal 2.3499720687899147e-16 -1.3428411821656654e-16 -1.0
  outer loop
    vertex 113.96533351320483 -1.9309765194804172 56.00000000000001
    vertex 107.94769542299974 1.6371718279414365 55.999999999999986
    vertex 108.46533351320481 1.5690234805195742 55.999999999999986
  endloop
endfacet
facet normal 2.3499720687899147e-16 -1.3428411821656654e-16 -1.0
  outer loop
    vertex 113.96533351320483 -1.9309765194804172 56.00000000000001
    vertex 108.46533351320481 1.5690234805195742 55.999999999999986
    vertex 108.98297160340984 1.6371718279414391 55.999999999999986
  endloop
endfacet
facet normal 2.3499720687899147e-16 -1.3428411821656654e-16 -1.0
  outer loop
    vertex 113.96533351320483 -1.9309765194804172 56.00000000000001
    vertex 108.98297160340984 1.6371718279414391 55.999999999999986
    vertex 109.46533351320481 1.8369726729507008 55.999999999999986
  endloop
endfacet
facet normal 2.3499720687899147e-16 -1.3428411821656654e-16 -1.0
  outer loop
    vertex 113.96533351320483 -1.9309765194804172 56.00000000000001
    vertex 109.46533351320481 1.8369726729507008 55.999999999999986
    vertex 109.8795470755779 2.1548099181464835 55.999999999999986
  endloop
endfacet
facet normal 2.3499720687899147e-16 -1.3428411821656654e-16 -1.0
  outer loop
    vertex 113.96533351320483 -1.9309765194804172 56.00000000000001
    vertex 109.8795470755779 2.1548099181464835 55.999999999999986
    vertex 110.19738432077368 2.5690234805195793 55.999999999999986
  endloop
endfacet
facet normal 2.3499720687899147e-16 -1.3428411821656654e-16 -1.0
  outer loop
    vertex 113.96533351320483 -1.9309765194804172 56.00000000000001
    vertex 110.19738432077368 2.5690234805195793 55.999999999999986
    vertex 110.39718516578293 3.051385390314539 55.999999999999986
  endloop
endfacet
facet normal 2.3499720687899147e-16 -1.3428411821656654e-16 -1.0
  outer loop
    vertex 113.96533351320483 -1.9309765194804172 56.00000000000001
    vertex 110.39718516578293 3.051385390314539 55.999999999999986
    vertex 110.4653335132048 3.5690234805195797 55.999999999999986
  endloop
endfacet
facet normal 2.3499720687899147e-16 -1.3428411821656654e-16 -1.0
  outer loop
    vertex 113.96533351320483 -1.9309765194804172 56.00000000000001
    vertex 110.4653335132048 3.5690234805195797 55.999999999999986
    vertex 113.96533351320483 40.069023480519576 56.00000000000001
  endloop
endfacet
endsolid door
