solid door
facet normal -1.6697169962454648e-16 -1.0 -3.6256711918472973e-16
  outer loop
    vertex 112.96533351320483 58.06902348051955 1.9999999999999991
    vertex 41.965333513204804 58.06902348051953 35.99999999999999
    vertex 41.965333513204804 58.06902348051957 1.9999999999999767
  endloop
endfacet
facet normal -1.6697169962454648e-16 -1.0 -3.6256711918472973e-16
  outer loop
    vertex 41.965333513204804 58.06902348051953 35.99999999999999
    vertex 112.96533351320483 58.06902348051955 1.9999999999999991
    vertex 112.96533351320483 58.06902348051953 35.99999999999999
  endloop
endfacet
facet normal 1.8557522501891957e-16 -6.933865336195903e-16 -1.0
  outer loop
    vertex 113.96533351320483 60.069023480519554 1.9999999999999851
    vertex 41.965333513204804 58.06902348051957 1.9999999999999767
    vertex 41.965333513204804 60.069023480519554 1.9999999999999851
  endloop
endfacet
facet normal 1.8557522501891957e-16 -6.933865336195903e-16 -1.0
  outer loop
    vertex 41.965333513204804 58.06902348051957 1.9999999999999767
    vertex 113.96533351320483 60.069023480519554 1.9999999999999851
    vertex 112.96533351320483 59.06902348051955 1.9999999999999991
  endloop
endfacet
facet normal 1.8557522501891957e-16 -6.933865336195903e-16 -1.0
  outer loop
    vertex 112.96533351320483 59.06902348051955 1.9999999999999991
    vertex 113.96533351320483 60.069023480519554 1.9999999999999851
    vertex 113.96533351320483 59.06902348051955 1.9999999999999991
  endloop
endfacet
facet normal 1.8557522501891957e-16 -6.933865336195903e-16 -1.0
  outer loop
    vertex 112.96533351320483 58.06902348051955 1.9999999999999991
    vertex 41.965333513204804 58.06902348051957 1.9999999999999767
    vertex 112.96533351320483 59.06902348051955 1.9999999999999991
  endloop
endfacet
facet normal 1.0 0.0 0.0
  outer loop
    vertex 113.96533351320483 59.06902348051955 1.9999999999999991
    vertex 113.96533351320483 60.06902348051954 35.99999999999998
    vertex 113.96533351320483 59.06902348051953 35.99999999999999
  endloop
endfacet
facet normal 1.0 0.0 0.0
  outer loop
    vertex 113.96533351320483 60.06902348051954 35.99999999999998
    vertex 113.96533351320483 59.06902348051955 1.9999999999999991
    vertex 113.96533351320483 60.069023480519554 1.9999999999999851
  endloop
endfacet
facet normal -1.0 0.0 0.0
  outer loop
    vertex 41.965333513204804 60.06902348051954 35.99999999999998
    vertex 41.965333513204804 58.06902348051957 1.9999999999999767
    vertex 41.965333513204804 58.06902348051953 35.99999999999999
  endloop
endfacet
facet normal -1.0 0.0 0.0
  outer loop
    vertex 41.965333513204804 58.06902348051957 1.9999999999999767
    vertex 41.965333513204804 60.06902348051954 35.99999999999998
    vertex 41.965333513204804 60.069023480519554 1.9999999999999851
  endloop
endfacet
facet normal -3.967946898345474e-17 5.658864354456801e-15 1.0
  outer loop
    vertex 112.96533351320483 58.06902348051953 35.99999999999999
    vertex 41.965333513204804 60.06902348051954 35.99999999999998
    vertex 41.965333513204804 58.06902348051953 35.99999999999999
  endloop
endfacet
facet normal -3.967946898345474e-17 5.658864354456801e-15 1.0
  outer loop
    vertex 41.965333513204804 60.06902348051954 35.99999999999998
    vertex 112.96533351320483 58.06902348051953 35.99999999999999
    vertex 112.96533351320483 59.06902348051953 35.99999999999999
  endloop
endfacet
facet normal -3.967946898345474e-17 5.658864354456801e-15 1.0
  outer loop
    vertex 41.965333513204804 60.06902348051954 35.99999999999998
    vertex 112.96533351320483 59.06902348051953 35.99999999999999
    vertex 113.96533351320483 60.06902348051954 35.99999999999998
  endloop
endfacet
facet normal -3.967946898345474e-17 5.658864354456801e-15 1.0
  outer loop
    vertex 113.96533351320483 60.06902348051954 35.99999999999998
    vertex 112.96533351320483 59.06902348051953 35.99999999999999
    vertex 113.96533351320483 59.06902348051953 35.99999999999999
  endloop
endfacet
facet normal 0.0 -1.0 0.0
  outer loop
    vertex 113.96533351320483 59.06902348051953 35.99999999999999
    vertex 112.96533351320483 59.06902348051955 1.9999999999999991
    vertex 113.96533351320483 59.06902348051955 1.9999999999999991
  endloop
endfacet
facet normal 0.0 -1.0 0.0
  outer loop
    vertex 112.96533351320483 59.06902348051955 1.9999999999999991
    vertex 113.96533351320483 59.06902348051953 35.99999999999999
    vertex 112.96533351320483 59.06902348051953 35.99999999999999
  endloop
endfacet
facet normal 1.0 0.0 0.0
  outer loop
    vertex 112.96533351320483 58.06902348051955 1.9999999999999991
    vertex 112.96533351320483 59.06902348051953 35.99999999999999
    vertex 112.96533351320483 58.06902348051953 35.99999999999999
  endloop
endfacet
facet normal 1.0 0.0 0.0
  outer loop
    vertex 112.96533351320483 59.06902348051953 35.99999999999999
    vertex 112.96533351320483 58.06902348051955 1.9999999999999991
    vertex 112.96533351320483 59.06902348051955 1.9999999999999991
  endloop
endfacet
facet normal -6.261669878008673e-48 1.0 3.3176076265269394e-16
  outer loop
    vertex 41.965333513204804 60.06902348051954 35.99999999999998
    vertex 113.96533351320483 60.069023480519554 1.9999999999999851
    vertex 41.965333513204804 60.069023480519554 1.9999999999999851
  endloop
endfacet
facet normal -6.261669878008673e-48 1.0 3.3176076265269394e-16
  outer loop
    vertex 113.96533351320483 60.069023480519554 1.9999999999999851
    vertex 41.965333513204804 60.06902348051954 35.99999999999998
    vertex 113.96533351320483 60.06902348051954 35.99999999999998
  endloop
endfacet
endsolid door
