solid door
facet normal 1.1279865930191609e-14 1.0 3.222818837197604e-16
  outer loop
    vertex 134.96533351320483 39.1862517096769 1.9999999999999991
    vertex 135.96533351320483 39.18625170967688 35.999999999999936
    vertex 135.96533351320483 39.1862517096769 1.999999999999995
  endloop
endfacet
facet normal 1.1279865930191609e-14 1.0 3.222818837197604e-16
  outer loop
    vertex 135.96533351320483 39.18625170967688 35.999999999999936
    vertex 134.96533351320483 39.1862517096769 1.9999999999999991
    vertex 134.96533351320483 39.1862517096769 35.99999999999992
  endloop
endfacet
facet normal -1.6935250766425323e-15 1.1341673414740577e-15 1.0
  outer loop
    vertex 133.9653335132049 0.18625170967694246 35.999999999999964
    vertex 134.96533351320483 38.1862517096769 35.99999999999992
    vertex 133.96533351320483 38.1862517096769 35.99999999999992
  endloop
endfacet
facet normal -1.6935250766425323e-15 1.1341673414740577e-15 1.0
  outer loop
    vertex 134.96533351320483 38.1862517096769 35.99999999999992
    vertex 133.9653335132049 0.18625170967694246 35.999999999999964
    vertex 135.96533351320483 0.18625170967692978 35.999999999999964
  endloop
endfacet
facet normal -1.6935250766425323e-15 1.1341673414740577e-15 1.0
  outer loop
    vertex 134.96533351320483 38.1862517096769 35.99999999999992
    vertex 135.96533351320483 0.18625170967692978 35.999999999999964
    vertex 134.96533351320483 39.1862517096769 35.99999999999992
  endloop
endfacet
facet normal -1.6935250766425323e-15 1.1341673414740577e-15 1.0
  outer loop
    vertex 134.96533351320483 39.1862517096769 35.99999999999992
    vertex 135.96533351320483 0.18625170967692978 35.999999999999964
    vertex 135.96533351320483 39.18625170967688 35.999999999999936
  endloop
endfacet
facet normal 0.0 1.0 0.0
  outer loop
    vertex 133.96533351320483 38.1862517096769 35.99999999999992
    vertex 134.96533351320483 38.1862517096769 1.9999999999999991
    vertex 133.96533351320483 38.1862517096769 1.9999999999999991
  endloop
endfacet
facet normal 0.0 1.0 0.0
  outer loop
    vertex 134.96533351320483 38.1862517096769 1.9999999999999991
    vertex 133.96533351320483 38.1862517096769 35.99999999999992
    vertex 134.96533351320483 38.1862517096769 35.99999999999992
  endloop
endfacet
facet normal -1.0 0.0 0.0
  outer loop
    vertex 134.96533351320483 39.1862517096769 35.99999999999992
    vertex 134.96533351320483 38.1862517096769 1.9999999999999991
    vertex 134.96533351320483 38.1862517096769 35.99999999999992
  endloop
endfacet
facet normal -1.0 0.0 0.0
  outer loop
    vertex 134.96533351320483 38.1862517096769 1.9999999999999991
    vertex 134.96533351320483 39.1862517096769 35.99999999999992
    vertex 134.96533351320483 39.1862517096769 1.9999999999999991
  endloop
endfacet
facet normal 1.0 0.0 -1.1102230246251563e-16
  outer loop
    vertex 135.96533351320483 39.1862517096769 1.999999999999995
    vertex 135.96533351320488 9.478047777177556 5.7499999999999725
    vertex 135.96533351320483 0.18625170967693513 1.999999999999978
  endloop
endfacet
facet normal 1.0 0.0 -1.1102230246251563e-16
  outer loop
    vertex 135.96533351320488 9.478047777177556 5.7499999999999725
    vertex 135.96533351320483 39.1862517096769 1.999999999999995
    vertex 135.96533351320488 28.18625170967692 5.749999999999974
  endloop
endfacet
facet normal 1.0 0.0 -1.1102230246251563e-16
  outer loop
    vertex 135.96533351320488 28.18625170967692 5.749999999999974
    vertex 135.96533351320483 39.1862517096769 1.999999999999995
    vertex 135.96533351320488 28.18625170967692 10.749999999999972
  endloop
endfacet
facet normal 1.0 0.0 -1.1102230246251563e-16
  outer loop
    vertex 135.96533351320488 28.18625170967692 10.749999999999972
    vertex 135.96533351320483 39.1862517096769 1.999999999999995
    vertex 135.96533351320483 39.18625170967688 35.999999999999936
  endloop
endfacet
facet normal 1.0 0.0 -1.1102230246251563e-16
  outer loop
    vertex 135.96533351320483 0.18625170967692978 35.999999999999964
    vertex 135.96533351320488 9.478047777177556 10.749999999999972
    vertex 135.96533351320483 39.18625170967688 35.999999999999936
  endloop
endfacet
facet normal 1.0 0.0 -1.1102230246251563e-16
  outer loop
    vertex 135.96533351320488 9.478047777177556 10.749999999999972
    vertex 135.96533351320483 0.18625170967692978 35.999999999999964
    vertex 135.96533351320483 0.18625170967693513 1.999999999999978
  endloop
endfacet
facet normal 1.0 0.0 -1.1102230246251563e-16
  outer loop
    vertex 135.96533351320488 9.478047777177556 10.749999999999972
    vertex 135.96533351320483 0.18625170967693513 1.999999999999978
    vertex 135.96533351320488 9.478047777177556 5.7499999999999725
  endloop
endfacet
facet normal 1.0 0.0 -1.1102230246251563e-16
  outer loop
    vertex 135.96533351320483 39.18625170967688 35.999999999999936
    vertex 135.96533351320488 9.478047777177556 10.749999999999972
    vertex 135.96533351320488 28.18625170967692 10.749999999999972
  endloop
endfacet
facet normal 2.3532456507981538e-32 -1.0 6.938893903907228e-17
  outer loop
    vertex 135.96533351320483 0.18625170967693513 1.999999999999978
    vertex 133.9653335132049 0.18625170967694246 35.999999999999964
    vertex 133.9653335132049 0.18625170967694996 1.9999999999999654
  endloop
endfacet
facet normal 2.3532456507981538e-32 -1.0 6.938893903907228e-17
  outer loop
    vertex 133.9653335132049 0.18625170967694246 35.999999999999964
    vertex 135.96533351320483 0.18625170967693513 1.999999999999978
    vertex 135.96533351320483 0.18625170967692978 35.999999999999964
  endloop
endfacet
facet normal 1.8921642780273606e-15 6.744223438040977e-16 -1.0
  outer loop
    vertex 135.96533351320483 39.1862517096769 1.999999999999995
    vertex 134.96533351320483 38.1862517096769 1.9999999999999991
    vertex 134.96533351320483 39.1862517096769 1.9999999999999991
  endloop
endfacet
facet normal 1.8921642780273606e-15 6.744223438040977e-16 -1.0
  outer loop
    vertex 134.96533351320483 38.1862517096769 1.9999999999999991
    vertex 133.9653335132049 0.18625170967694996 1.9999999999999654
    vertex 133.96533351320483 38.1862517096769 1.9999999999999991
  endloop
endfacet
facet normal 1.8921642780273606e-15 6.744223438040977e-16 -1.0
  outer loop
    vertex 133.9653335132049 0.18625170967694996 1.9999999999999654
    vertex 134.96533351320483 38.1862517096769 1.9999999999999991
    vertex 135.96533351320483 0.18625170967693513 1.999999999999978
  endloop
endfacet
facet normal 1.8921642780273606e-15 6.744223438040977e-16 -1.0
  outer loop
    vertex 135.96533351320483 0.18625170967693513 1.999999999999978
    vertex 134.96533351320483 38.1862517096769 1.9999999999999991
    vertex 135.96533351320483 39.1862517096769 1.999999999999995
  endloop
endfacet
facet normal -1.0 -1.911044903125587e-15 3.399209943723312e-18
  outer loop
    vertex 133.9653335132049 0.18625170967694246 35.999999999999964
    vertex 133.96533351320488 9.478047777177556 10.749999999999972
    vertex 133.9653335132049 0.18625170967694996 1.9999999999999654
  endloop
endfacet
facet normal -1.0 -1.911044903125587e-15 3.399209943723312e-18
  outer loop
    vertex 133.96533351320488 9.478047777177556 10.749999999999972
    vertex 133.9653335132049 0.18625170967694246 35.999999999999964
    vertex 133.96533351320483 38.1862517096769 35.99999999999992
  endloop
endfacet
facet normal -1.0 -1.911044903125587e-15 3.399209943723312e-18
  outer loop
    vertex 133.96533351320488 9.478047777177556 10.749999999999972
    vertex 133.96533351320483 38.1862517096769 35.99999999999992
    vertex 133.96533351320488 28.18625170967692 10.749999999999972
  endloop
endfacet
facet normal -1.0 -1.911044903125587e-15 3.399209943723312e-18
  outer loop
    vertex 133.96533351320488 28.18625170967692 10.749999999999972
    vertex 133.96533351320483 38.1862517096769 35.99999999999992
    vertex 133.96533351320488 28.18625170967692 5.749999999999974
  endloop
endfacet
facet normal -1.0 -1.911044903125587e-15 3.399209943723312e-18
  outer loop
    vertex 133.9653335132049 0.18625170967694996 1.9999999999999654
    vertex 133.96533351320488 9.478047777177556 5.7499999999999725
    vertex 133.96533351320483 38.1862517096769 1.9999999999999991
  endloop
endfacet
facet normal -1.0 -1.911044903125587e-15 3.399209943723312e-18
  outer loop
    vertex 133.96533351320488 9.478047777177556 5.7499999999999725
    vertex 133.9653335132049 0.18625170967694996 1.9999999999999654
    vertex 133.96533351320488 9.478047777177556 10.749999999999972
  endloop
endfacet
facet normal -1.0 -1.911044903125587e-15 3.399209943723312e-18
  outer loop
    vertex 133.96533351320483 38.1862517096769 1.9999999999999991
    vertex 133.96533351320488 9.478047777177556 5.7499999999999725
    vertex 133.96533351320488 28.18625170967692 5.749999999999974
  endloop
endfacet
facet normal -1.0 -1.911044903125587e-15 3.399209943723312e-18
  outer loop
    vertex 133.96533351320483 38.1862517096769 1.9999999999999991
    vertex 133.96533351320488 28.18625170967692 5.749999999999974
    vertex 133.96533351320483 38.1862517096769 35.99999999999992
  endloop
endfacet
facet normal 0.0 1.0 0.0
  outer loop
    vertex 133.96533351320488 9.478047777177556 10.749999999999972
    vertex 135.96533351320488 9.478047777177556 5.7499999999999725
    vertex 133.96533351320488 9.478047777177556 5.7499999999999725
  endloop
endfacet
facet normal 0.0 1.0 0.0
  outer loop
    vertex 135.96533351320488 9.478047777177556 5.7499999999999725
    vertex 133.96533351320488 9.478047777177556 10.749999999999972
    vertex 135.96533351320488 9.478047777177556 10.749999999999972
  endloop
endfacet
facet normal 0.0 0.0 -1.0
  outer loop
    vertex 135.96533351320488 28.18625170967692 10.749999999999972
    vertex 133.96533351320488 9.478047777177556 10.749999999999972
    vertex 133.96533351320488 28.18625170967692 10.749999999999972
  endloop
endfacet
facet normal 0.0 0.0 -1.0
  outer loop
    vertex 133.96533351320488 9.478047777177556 10.749999999999972
    vertex 135.96533351320488 28.18625170967692 10.749999999999972
    vertex 135.96533351320488 9.478047777177556 10.749999999999972
  endloop
endfacet
facet normal -0.0 -1.0 -0.0
  outer loop
    vertex 135.96533351320488 28.18625170967692 10.749999999999972
    vertex 133.96533351320488 28.18625170967692 5.749999999999974
    vertex 135.96533351320488 28.18625170967692 5.749999999999974
  endloop
endfacet
facet normal -0.0 -1.0 -0.0
  outer loop
    vertex 133.96533351320488 28.18625170967692 5.749999999999974
    vertex 135.96533351320488 28.18625170967692 10.749999999999972
    vertex 133.96533351320488 28.18625170967692 10.749999999999972
  endloop
endfacet
facet normal 0.0 -7.53671088021745e-17 1.0
  outer loop
    vertex 135.96533351320488 9.478047777177556 5.7499999999999725
    vertex 133.96533351320488 28.18625170967692 5.749999999999974
    vertex 133.96533351320488 9.478047777177556 5.7499999999999725
  endloop
endfacet
facet normal 0.0 -7.53671088021745e-17 1.0
  outer loop
    vertex 133.96533351320488 28.18625170967692 5.749999999999974
    vertex 135.96533351320488 9.478047777177556 5.7499999999999725
    vertex 135.96533351320488 28.18625170967692 5.749999999999974
  endloop
endfacet
endsolid door
