solid door
facet normal 0.0 -1.0 0.0
  outer loop
    vertex 167.1358463584839 35.32991753646239 11.999999999999993
    vertex 155.1358463584839 35.32991753646238 0.99999999999999
    vertex 167.1358463584839 35.32991753646238 0.99999999999999
  endloop
endfacet
facet normal 0.0 -1.0 0.0
  outer loop
    vertex 155.1358463584839 35.32991753646238 0.99999999999999
    vertex 167.1358463584839 35.32991753646239 11.999999999999993
    vertex 155.1358463584839 35.32991753646239 11.999999999999993
  endloop
endfacet
facet normal 0.0 0.0 1.0
  outer loop
    vertex 155.1358463584839 35.32991753646239 11.999999999999993
    vertex 156.1358463584839 37.32991753646238 11.999999999999993
    vertex 155.1358463584839 38.32991753646238 11.999999999999993
  endloop
endfacet
facet normal 0.0 0.0 1.0
  outer loop
    vertex 156.1358463584839 37.32991753646238 11.999999999999993
    vertex 155.1358463584839 35.32991753646239 11.999999999999993
    vertex 167.1358463584839 35.32991753646239 11.999999999999993
  endloop
endfacet
facet normal 0.0 0.0 1.0
  outer loop
    vertex 156.1358463584839 37.32991753646238 11.999999999999993
    vertex 167.1358463584839 35.32991753646239 11.999999999999993
    vertex 167.1358463584839 36.32991753646239 11.999999999999993
  endloop
endfacet
facet normal 0.0 0.0 1.0
  outer loop
    vertex 156.1358463584839 37.32991753646238 11.999999999999993
    vertex 167.1358463584839 36.32991753646239 11.999999999999993
    vertex 168.1358463584839 37.32991753646238 11.999999999999993
  endloop
endfacet
facet normal 0.0 0.0 1.0
  outer loop
    vertex 168.1358463584839 37.32991753646238 11.999999999999993
    vertex 167.1358463584839 36.32991753646239 11.999999999999993
    vertex 168.1358463584839 36.32991753646239 11.999999999999993
  endloop
endfacet
facet normal 0.0 0.0 1.0
  outer loop
    vertex 156.1358463584839 38.32991753646238 11.999999999999993
    vertex 155.1358463584839 38.32991753646238 11.999999999999993
    vertex 156.1358463584839 37.32991753646238 11.999999999999993
  endloop
endfacet
facet normal 0.0 0.0 -1.0
  outer loop
    vertex 168.1358463584839 37.329917536462375 0.9999999999999999
    vertex 167.1358463584839 36.32991753646238 0.999999999999995
    vertex 156.1358463584839 37.32991753646238 0.9999999999999999
  endloop
endfacet
facet normal 0.0 0.0 -1.0
  outer loop
    vertex 167.1358463584839 36.32991753646238 0.999999999999995
    vertex 168.1358463584839 37.329917536462375 0.9999999999999999
    vertex 168.1358463584839 36.32991753646238 0.999999999999995
  endloop
endfacet
facet normal 0.0 0.0 -1.0
  outer loop
    vertex 156.1358463584839 38.32991753646238 0.9999999999999992
    vertex 155.1358463584839 35.32991753646238 0.99999999999999
    vertex 155.1358463584839 38.32991753646237 0.9999999999999992
  endloop
endfacet
facet normal 0.0 0.0 -1.0
  outer loop
    vertex 155.1358463584839 35.32991753646238 0.99999999999999
    vertex 156.1358463584839 38.32991753646238 0.9999999999999992
    vertex 156.1358463584839 37.32991753646238 0.9999999999999999
  endloop
endfacet
facet normal 0.0 0.0 -1.0
  outer loop
    vertex 155.1358463584839 35.32991753646238 0.99999999999999
    vertex 156.1358463584839 37.32991753646238 0.9999999999999999
    vertex 167.1358463584839 35.32991753646238 0.99999999999999
  endloop
endfacet
facet normal 0.0 0.0 -1.0
  outer loop
    vertex 167.1358463584839 35.32991753646238 0.99999999999999
    vertex 156.1358463584839 37.32991753646238 0.9999999999999999
    vertex 167.1358463584839 36.32991753646238 0.999999999999995
  endloop
endfacet
facet normal 4.699944137579829e-16 1.0 -5.127211786450726e-16
  outer loop
    vertex 156.1358463584839 37.32991753646238 11.999999999999993
    vertex 168.1358463584839 37.329917536462375 0.9999999999999999
    vertex 156.1358463584839 37.32991753646238 0.9999999999999999
  endloop
endfacet
facet normal 4.699944137579829e-16 1.0 -5.127211786450726e-16
  outer loop
    vertex 168.1358463584839 37.329917536462375 0.9999999999999999
    vertex 156.1358463584839 37.32991753646238 11.999999999999993
    vertex 168.1358463584839 37.32991753646238 11.999999999999993
  endloop
endfacet
facet normal -1.0 0.0 0.0
  outer loop
    vertex 155.1358463584839 35.32991753646239 11.999999999999993
    vertex 155.1358463584839 38.32991753646237 0.9999999999999992
    vertex 155.1358463584839 35.32991753646238 0.99999999999999
  endloop
endfacet
facet normal -1.0 0.0 0.0
  outer loop
    vertex 155.1358463584839 38.32991753646237 0.9999999999999992
    vertex 155.1358463584839 35.32991753646239 11.999999999999993
    vertex 155.1358463584839 38.32991753646238 11.999999999999993
  endloop
endfacet
facet normal -5.639932965095796e-15 1.0 -5.127211786450726e-16
  outer loop
    vertex 155.1358463584839 38.32991753646238 11.999999999999993
    vertex 156.1358463584839 38.32991753646238 0.9999999999999992
    vertex 155.1358463584839 38.32991753646237 0.9999999999999992
  endloop
endfacet
facet normal -5.639932965095796e-15 1.0 -5.127211786450726e-16
  outer loop
    vertex 156.1358463584839 38.32991753646238 0.9999999999999992
    vertex 155.1358463584839 38.32991753646238 11.999999999999993
    vertex 156.1358463584839 38.32991753646238 11.999999999999993
  endloop
endfacet
facet normal 1.0 5.639932965095796e-15 0.0
  outer loop
    vertex 156.1358463584839 38.32991753646238 0.9999999999999992
    vertex 156.1358463584839 37.32991753646238 11.999999999999993
    vertex 156.1358463584839 37.32991753646238 0.9999999999999999
  endloop
endfacet
facet normal 1.0 5.639932965095796e-15 0.0
  outer loop
    vertex 156.1358463584839 37.32991753646238 11.999999999999993
    vertex 156.1358463584839 38.32991753646238 0.9999999999999992
    vertex 156.1358463584839 38.32991753646238 11.999999999999993
  endloop
endfacet
facet normal 1.0 0.0 0.0
  outer loop
    vertex 168.1358463584839 37.329917536462375 0.9999999999999999
    vertex 168.1358463584839 36.32991753646239 11.999999999999993
    vertex 168.1358463584839 36.32991753646238 0.999999999999995
  endloop
endfacet
facet normal 1.0 0.0 0.0
  outer loop
    vertex 168.1358463584839 36.32991753646239 11.999999999999993
    vertex 168.1358463584839 37.329917536462375 0.9999999999999999
    vertex 168.1358463584839 37.32991753646238 11.999999999999993
  endloop
endfacet
facet normal 1.0 0.0 0.0
  outer loop
    vertex 167.1358463584839 36.32991753646238 0.999999999999995
    vertex 167.1358463584839 35.32991753646239 11.999999999999993
    vertex 167.1358463584839 35.32991753646238 0.99999999999999
  endloop
endfacet
facet normal 1.0 0.0 0.0
  outer loop
    vertex 167.1358463584839 35.32991753646239 11.999999999999993
    vertex 167.1358463584839 36.32991753646238 0.999999999999995
    vertex 167.1358463584839 36.32991753646239 11.999999999999993
  endloop
endfacet
facet normal 0.0 -1.0 5.127211786450724e-16
  outer loop
    vertex 168.1358463584839 36.32991753646239 11.999999999999993
    vertex 167.1358463584839 36.32991753646238 0.999999999999995
    vertex 168.1358463584839 36.32991753646238 0.999999999999995
  endloop
endfacet
facet normal 0.0 -1.0 5.127211786450724e-16
  outer loop
    vertex 167.1358463584839 36.32991753646238 0.999999999999995
    vertex 168.1358463584839 36.32991753646239 11.999999999999993
    vertex 167.1358463584839 36.32991753646239 11.999999999999993
  endloop
endfacet
endsolid door
