solid door
facet normal -9.878863473893912e-17 -1.0 -6.54656720133768e-47
  outer loop
    vertex 168.1358463584839 29.329917536462375 1.9999999999999998
    vertex 156.1358463584839 29.329917536462382 0.9999999999999999
    vertex 168.1358463584839 29.329917536462375 0.9999999999999999
  endloop
endfacet
facet normal -9.878863473893912e-17 -1.0 -6.54656720133768e-47
  outer loop
    vertex 156.1358463584839 29.329917536462382 0.9999999999999999
    vertex 168.1358463584839 29.329917536462375 1.9999999999999998
    vertex 156.1358463584839 29.329917536462382 1.9999999999999998
  endloop
endfacet
facet normal 0.0 0.0 1.0
  outer loop
    vertex 156.1358463584839 27.32991753646238 0.9999999999999999
    vertex 155.1358463584839 30.329917536462382 0.9999999999999999
    vertex 155.1358463584839 27.32991753646238 0.9999999999999999
  endloop
endfacet
facet normal 0.0 0.0 1.0
  outer loop
    vertex 155.1358463584839 30.329917536462382 0.9999999999999999
    vertex 156.1358463584839 27.32991753646238 0.9999999999999999
    vertex 156.1358463584839 30.329917536462382 0.9999999999999999
  endloop
endfacet
facet normal 0.0 0.0 1.0
  outer loop
    vertex 156.1358463584839 30.329917536462382 0.9999999999999999
    vertex 156.1358463584839 27.32991753646238 0.9999999999999999
    vertex 156.1358463584839 29.329917536462382 0.9999999999999999
  endloop
endfacet
facet normal 0.0 0.0 1.0
  outer loop
    vertex 167.1358463584839 11.32991753646238 0.9999999999999999
    vertex 156.1358463584839 27.32991753646238 0.9999999999999999
    vertex 156.1358463584839 11.32991753646238 0.9999999999999999
  endloop
endfacet
facet normal 0.0 0.0 1.0
  outer loop
    vertex 156.1358463584839 27.32991753646238 0.9999999999999999
    vertex 167.1358463584839 11.32991753646238 0.9999999999999999
    vertex 156.1358463584839 29.329917536462382 0.9999999999999999
  endloop
endfacet
facet normal 0.0 0.0 1.0
  outer loop
    vertex 156.1358463584839 29.329917536462382 0.9999999999999999
    vertex 167.1358463584839 11.32991753646238 0.9999999999999999
    vertex 167.1358463584839 28.32991753646238 0.9999999999999999
  endloop
endfacet
facet normal 0.0 0.0 1.0
  outer loop
    vertex 156.1358463584839 29.329917536462382 0.9999999999999999
    vertex 167.1358463584839 28.32991753646238 0.9999999999999999
    vertex 168.1358463584839 29.329917536462375 0.9999999999999999
  endloop
endfacet
facet normal 0.0 0.0 1.0
  outer loop
    vertex 168.1358463584839 29.329917536462375 0.9999999999999999
    vertex 167.1358463584839 28.32991753646238 0.9999999999999999
    vertex 168.1358463584839 28.32991753646238 0.9999999999999999
  endloop
endfacet
facet normal 0.0 0.0 1.0
  outer loop
    vertex 168.1358463584839 29.329917536462375 1.9999999999999998
    vertex 156.1358463584839 30.329917536462382 1.9999999999999998
    vertex 156.1358463584839 29.329917536462382 1.9999999999999998
  endloop
endfacet
facet normal 0.0 0.0 1.0
  outer loop
    vertex 156.1358463584839 30.329917536462382 1.9999999999999998
    vertex 168.1358463584839 29.329917536462375 1.9999999999999998
    vertex 168.1358463584839 30.329917536462382 1.9999999999999998
  endloop
endfacet
facet normal 0.0 0.0 -1.0
  outer loop
    vertex 156.1358463584839 30.329917536462382 12.0
    vertex 155.1358463584839 27.32991753646238 12.0
    vertex 155.1358463584839 30.329917536462382 12.0
  endloop
endfacet
facet normal 0.0 0.0 -1.0
  outer loop
    vertex 155.1358463584839 27.32991753646238 12.0
    vertex 156.1358463584839 30.329917536462382 12.0
    vertex 156.1358463584839 27.32991753646238 12.0
  endloop
endfacet
facet normal 0.0 0.0 -1.0
  outer loop
    vertex 156.1358463584839 27.32991753646238 12.0
    vertex 156.1358463584839 30.329917536462382 12.0
    vertex 156.1358463584839 29.329917536462382 12.0
  endloop
endfacet
facet normal 0.0 0.0 -1.0
  outer loop
    vertex 156.1358463584839 27.32991753646238 12.0
    vertex 156.1358463584839 29.329917536462382 12.0
    vertex 168.1358463584839 29.329917536462375 12.0
  endloop
endfacet
facet normal 0.0 0.0 -1.0
  outer loop
    vertex 156.1358463584839 27.32991753646238 12.0
    vertex 168.1358463584839 29.329917536462375 12.0
    vertex 167.1358463584839 28.32991753646238 12.0
  endloop
endfacet
facet normal 0.0 0.0 -1.0
  outer loop
    vertex 156.1358463584839 27.32991753646238 12.0
    vertex 167.1358463584839 28.32991753646238 12.0
    vertex 156.1358463584839 11.32991753646238 12.0
  endloop
endfacet
facet normal 0.0 0.0 -1.0
  outer loop
    vertex 167.1358463584839 28.32991753646238 12.0
    vertex 168.1358463584839 29.329917536462375 12.0
    vertex 168.1358463584839 28.32991753646238 12.0
  endloop
endfacet
facet normal 0.0 0.0 -1.0
  outer loop
    vertex 167.1358463584839 11.32991753646238 12.0
    vertex 156.1358463584839 11.32991753646238 12.0
    vertex 167.1358463584839 28.32991753646238 12.0
  endloop
endfacet
facet normal 0.0 1.0 0.0
  outer loop
    vertex 155.1358463584839 27.32991753646238 12.0
    vertex 156.1358463584839 27.32991753646238 0.9999999999999999
    vertex 155.1358463584839 27.32991753646238 0.9999999999999999
  endloop
endfacet
facet normal 0.0 1.0 0.0
  outer loop
    vertex 156.1358463584839 27.32991753646238 0.9999999999999999
    vertex 155.1358463584839 27.32991753646238 12.0
    vertex 156.1358463584839 27.32991753646238 12.0
  endloop
endfacet
facet normal 0.0 1.0 0.0
  outer loop
    vertex 155.1358463584839 30.329917536462382 12.999999999999998
    vertex 156.1358463584839 30.329917536462382 12.0
    vertex 155.1358463584839 30.329917536462382 12.0
  endloop
endfacet
facet normal 0.0 1.0 0.0
  outer loop
    vertex 156.1358463584839 30.329917536462382 12.0
    vertex 168.1358463584839 30.329917536462382 11.0
    vertex 156.1358463584839 30.329917536462382 11.0
  endloop
endfacet
facet normal 0.0 1.0 0.0
  outer loop
    vertex 168.1358463584839 30.329917536462382 11.0
    vertex 156.1358463584839 30.329917536462382 12.0
    vertex 168.1358463584839 30.329917536462382 12.999999999999998
  endloop
endfacet
facet normal 0.0 1.0 0.0
  outer loop
    vertex 168.1358463584839 30.329917536462382 12.999999999999998
    vertex 156.1358463584839 30.329917536462382 12.0
    vertex 155.1358463584839 30.329917536462382 12.999999999999998
  endloop
endfacet
facet normal -1.0 -0.0 -0.0
  outer loop
    vertex 167.1358463584839 28.32991753646238 12.0
    vertex 167.1358463584839 11.32991753646238 0.9999999999999999
    vertex 167.1358463584839 11.32991753646238 12.0
  endloop
endfacet
facet normal -1.0 -0.0 -0.0
  outer loop
    vertex 167.1358463584839 11.32991753646238 0.9999999999999999
    vertex 167.1358463584839 28.32991753646238 12.0
    vertex 167.1358463584839 28.32991753646238 0.9999999999999999
  endloop
endfacet
facet normal 0.0 1.0 0.0
  outer loop
    vertex 156.1358463584839 11.32991753646238 12.0
    vertex 167.1358463584839 11.32991753646238 0.9999999999999999
    vertex 156.1358463584839 11.32991753646238 0.9999999999999999
  endloop
endfacet
facet normal 0.0 1.0 0.0
  outer loop
    vertex 167.1358463584839 11.32991753646238 0.9999999999999999
    vertex 156.1358463584839 11.32991753646238 12.0
    vertex 167.1358463584839 11.32991753646238 12.0
  endloop
endfacet
facet normal 1.0 0.0 0.0
  outer loop
    vertex 156.1358463584839 27.32991753646238 0.9999999999999999
    vertex 156.1358463584839 11.32991753646238 12.0
    vertex 156.1358463584839 11.32991753646238 0.9999999999999999
  endloop
endfacet
facet normal 1.0 0.0 0.0
  outer loop
    vertex 156.1358463584839 11.32991753646238 12.0
    vertex 156.1358463584839 27.32991753646238 0.9999999999999999
    vertex 156.1358463584839 27.32991753646238 12.0
  endloop
endfacet
facet normal 1.0 0.0 0.0
  outer loop
    vertex 168.1358463584839 10.329917536462379 0.0
    vertex 168.1358463584839 28.32991753646238 0.9999999999999999
    vertex 168.1358463584839 10.329917536462379 12.999999999999998
  endloop
endfacet
facet normal 1.0 0.0 0.0
  outer loop
    vertex 168.1358463584839 28.32991753646238 0.9999999999999999
    vertex 168.1358463584839 10.329917536462379 0.0
    vertex 168.1358463584839 30.329917536462382 0.0
  endloop
endfacet
facet normal 1.0 0.0 0.0
  outer loop
    vertex 168.1358463584839 28.32991753646238 0.9999999999999999
    vertex 168.1358463584839 30.329917536462382 0.0
    vertex 168.1358463584839 29.329917536462375 0.9999999999999999
  endloop
endfacet
facet normal 1.0 0.0 0.0
  outer loop
    vertex 168.1358463584839 29.329917536462375 0.9999999999999999
    vertex 168.1358463584839 30.329917536462382 0.0
    vertex 168.1358463584839 29.329917536462375 1.9999999999999998
  endloop
endfacet
facet normal 1.0 0.0 0.0
  outer loop
    vertex 168.1358463584839 29.329917536462375 1.9999999999999998
    vertex 168.1358463584839 30.329917536462382 0.0
    vertex 168.1358463584839 30.329917536462382 1.9999999999999998
  endloop
endfacet
facet normal 1.0 0.0 0.0
  outer loop
    vertex 168.1358463584839 30.329917536462382 11.0
    vertex 168.1358463584839 29.329917536462375 12.0
    vertex 168.1358463584839 29.329917536462375 11.0
  endloop
endfacet
facet normal 1.0 0.0 0.0
  outer loop
    vertex 168.1358463584839 10.329917536462379 12.999999999999998
    vertex 168.1358463584839 28.32991753646238 12.0
    vertex 168.1358463584839 30.329917536462382 12.999999999999998
  endloop
endfacet
facet normal 1.0 0.0 0.0
  outer loop
    vertex 168.1358463584839 28.32991753646238 12.0
    vertex 168.1358463584839 10.329917536462379 12.999999999999998
    vertex 168.1358463584839 28.32991753646238 0.9999999999999999
  endloop
endfacet
facet normal 1.0 0.0 0.0
  outer loop
    vertex 168.1358463584839 30.329917536462382 12.999999999999998
    vertex 168.1358463584839 28.32991753646238 12.0
    vertex 168.1358463584839 29.329917536462375 12.0
  endloop
endfacet
facet normal 1.0 0.0 0.0
  outer loop
    vertex 168.1358463584839 30.329917536462382 12.999999999999998
    vertex 168.1358463584839 29.329917536462375 12.0
    vertex 168.1358463584839 30.329917536462382 11.0
  endloop
endfacet
facet normal -1.0 0.0 0.0
  outer loop
    vertex 155.1358463584839 10.329917536462379 12.999999999999998
    vertex 155.1358463584839 27.32991753646238 12.0
    vertex 155.1358463584839 10.329917536462379 0.0
  endloop
endfacet
facet normal -1.0 0.0 0.0
  outer loop
    vertex 155.1358463584839 27.32991753646238 12.0
    vertex 155.1358463584839 10.329917536462379 12.999999999999998
    vertex 155.1358463584839 30.329917536462382 12.999999999999998
  endloop
endfacet
facet normal -1.0 0.0 0.0
  outer loop
    vertex 155.1358463584839 27.32991753646238 12.0
    vertex 155.1358463584839 30.329917536462382 12.999999999999998
    vertex 155.1358463584839 30.329917536462382 12.0
  endloop
endfacet
facet normal -1.0 0.0 0.0
  outer loop
    vertex 155.1358463584839 10.329917536462379 0.0
    vertex 155.1358463584839 27.32991753646238 0.9999999999999999
    vertex 155.1358463584839 30.329917536462382 0.0
  endloop
endfacet
facet normal -1.0 0.0 0.0
  outer loop
    vertex 155.1358463584839 27.32991753646238 0.9999999999999999
    vertex 155.1358463584839 10.329917536462379 0.0
    vertex 155.1358463584839 27.32991753646238 12.0
  endloop
endfacet
facet normal -1.0 0.0 0.0
  outer loop
    vertex 155.1358463584839 30.329917536462382 0.0
    vertex 155.1358463584839 27.32991753646238 0.9999999999999999
    vertex 155.1358463584839 30.329917536462382 0.9999999999999999
  endloop
endfacet
facet normal 0.0 0.0 -1.0
  outer loop
    vertex 168.1358463584839 30.329917536462382 11.0
    vertex 156.1358463584839 29.329917536462382 11.0
    vertex 156.1358463584839 30.329917536462382 11.0
  endloop
endfacet
facet normal 0.0 0.0 -1.0
  outer loop
    vertex 156.1358463584839 29.329917536462382 11.0
    vertex 168.1358463584839 30.329917536462382 11.0
    vertex 168.1358463584839 29.329917536462375 11.0
  endloop
endfacet
facet normal 0.0 0.0 1.0
  outer loop
    vertex 168.1358463584839 10.329917536462379 12.999999999999998
    vertex 155.1358463584839 30.329917536462382 12.999999999999998
    vertex 155.1358463584839 10.329917536462379 12.999999999999998
  endloop
endfacet
facet normal 0.0 0.0 1.0
  outer loop
    vertex 155.1358463584839 30.329917536462382 12.999999999999998
    vertex 168.1358463584839 10.329917536462379 12.999999999999998
    vertex 168.1358463584839 30.329917536462382 12.999999999999998
  endloop
endfacet
facet normal -0.0 -1.0 -0.0
  outer loop
    vertex 168.1358463584839 10.329917536462379 12.999999999999998
    vertex 155.1358463584839 10.329917536462379 0.0
    vertex 168.1358463584839 10.329917536462379 0.0
  endloop
endfacet
facet normal -0.0 -1.0 -0.0
  outer loop
    vertex 155.1358463584839 10.329917536462379 0.0
    vertex 168.1358463584839 10.329917536462379 12.999999999999998
    vertex 155.1358463584839 10.329917536462379 12.999999999999998
  endloop
endfacet
facet normal 0.0 0.0 -1.0
  outer loop
    vertex 168.1358463584839 30.329917536462382 0.0
    vertex 155.1358463584839 10.329917536462379 0.0
    vertex 155.1358463584839 30.329917536462382 0.0
  endloop
endfacet
facet normal 0.0 0.0 -1.0
  outer loop
    vertex 155.1358463584839 10.329917536462379 0.0
    vertex 168.1358463584839 30.329917536462382 0.0
    vertex 168.1358463584839 10.329917536462379 0.0
  endloop
endfacet
facet normal -9.87886347389391e-17 -1.0 0.0
  outer loop
    vertex 168.1358463584839 29.329917536462375 12.0
    vertex 156.1358463584839 29.329917536462382 11.0
    vertex 168.1358463584839 29.329917536462375 11.0
  endloop
endfacet
facet normal -9.87886347389391e-17 -1.0 0.0
  outer loop
    vertex 156.1358463584839 29.329917536462382 11.0
    vertex 168.1358463584839 29.329917536462375 12.0
    vertex 156.1358463584839 29.329917536462382 12.0
  endloop
endfacet
facet normal 0.0 1.0 0.0
  outer loop
    vertex 167.1358463584839 28.32991753646238 12.0
    vertex 168.1358463584839 28.32991753646238 0.9999999999999999
    vertex 167.1358463584839 28.32991753646238 0.9999999999999999
  endloop
endfacet
facet normal 0.0 1.0 0.0
  outer loop
    vertex 168.1358463584839 28.32991753646238 0.9999999999999999
    vertex 167.1358463584839 28.32991753646238 12.0
    vertex 168.1358463584839 28.32991753646238 12.0
  endloop
endfacet
facet normal -1.0 0.0 0.0
  outer loop
    vertex 156.1358463584839 30.329917536462382 12.0
    vertex 156.1358463584839 29.329917536462382 11.0
    vertex 156.1358463584839 29.329917536462382 12.0
  endloop
endfacet
facet normal -1.0 0.0 0.0
  outer loop
    vertex 156.1358463584839 29.329917536462382 11.0
    vertex 156.1358463584839 30.329917536462382 12.0
    vertex 156.1358463584839 30.329917536462382 11.0
  endloop
endfacet
facet normal 0.0 1.0 0.0
  outer loop
    vertex 155.1358463584839 30.329917536462382 0.9999999999999999
    vertex 168.1358463584839 30.329917536462382 0.0
    vertex 155.1358463584839 30.329917536462382 0.0
  endloop
endfacet
facet normal 0.0 1.0 0.0
  outer loop
    vertex 168.1358463584839 30.329917536462382 0.0
    vertex 155.1358463584839 30.329917536462382 0.9999999999999999
    vertex 156.1358463584839 30.329917536462382 0.9999999999999999
  endloop
endfacet
facet normal 0.0 1.0 0.0
  outer loop
    vertex 168.1358463584839 30.329917536462382 0.0
    vertex 156.1358463584839 30.329917536462382 0.9999999999999999
    vertex 168.1358463584839 30.329917536462382 1.9999999999999998
  endloop
endfacet
facet normal 0.0 1.0 0.0
  outer loop
    vertex 168.1358463584839 30.329917536462382 1.9999999999999998
    vertex 156.1358463584839 30.329917536462382 0.9999999999999999
    vertex 156.1358463584839 30.329917536462382 1.9999999999999998
  endloop
endfacet
facet normal -1.0 0.0 0.0
  outer loop
    vertex 156.1358463584839 30.329917536462382 1.9999999999999998
    vertex 156.1358463584839 29.329917536462382 0.9999999999999999
    vertex 156.1358463584839 29.329917536462382 1.9999999999999998
  endloop
endfacet
facet normal -1.0 0.0 0.0
  outer loop
    vertex 156.1358463584839 29.329917536462382 0.9999999999999999
    vertex 156.1358463584839 30.329917536462382 1.9999999999999998
    vertex 156.1358463584839 30.329917536462382 0.9999999999999999
  endloop
endfacet
endsolid door
